<mxfile host="Electron" modified="2024-07-05T14:15:35.383Z" agent="Mozilla/5.0 (X11; Linux x86_64) AppleWebKit/537.36 (KHTML, like Gecko) draw.io/24.6.4 Chrome/124.0.6367.243 Electron/30.1.2 Safari/537.36" etag="--bvGGVf35f6otgNzAxs" version="24.6.4" type="device" pages="3">
  <diagram id="R2lEEEUBdFMjLlhIrx00" name="Entità">
    <mxGraphModel dx="1434" dy="838" grid="1" gridSize="10" guides="1" tooltips="1" connect="1" arrows="1" fold="1" page="1" pageScale="1" pageWidth="850" pageHeight="1100" math="0" shadow="0" extFonts="Permanent Marker^https://fonts.googleapis.com/css?family=Permanent+Marker">
      <root>
        <mxCell id="0" />
        <mxCell id="1" parent="0" />
        <mxCell id="8oFQcB6DLxekD1Pzao8Z-1" value="SEDE" style="rounded=0;whiteSpace=wrap;html=1;" parent="1" vertex="1">
          <mxGeometry x="120" y="120" width="80" height="40" as="geometry" />
        </mxCell>
        <mxCell id="8oFQcB6DLxekD1Pzao8Z-3" value="id" style="text;html=1;align=center;verticalAlign=middle;whiteSpace=wrap;rounded=0;" parent="1" vertex="1">
          <mxGeometry x="200" y="70" width="20" height="30" as="geometry" />
        </mxCell>
        <mxCell id="8oFQcB6DLxekD1Pzao8Z-7" value="" style="endArrow=none;html=1;rounded=0;align=center;verticalAlign=top;endFill=0;labelBackgroundColor=none;endSize=6;startArrow=oval;startFill=1;entryX=0.75;entryY=0;entryDx=0;entryDy=0;exitX=0;exitY=1;exitDx=0;exitDy=0;" parent="1" source="8oFQcB6DLxekD1Pzao8Z-3" target="8oFQcB6DLxekD1Pzao8Z-1" edge="1">
          <mxGeometry relative="1" as="geometry">
            <mxPoint x="350" y="10" as="sourcePoint" />
            <mxPoint x="510" y="10" as="targetPoint" />
          </mxGeometry>
        </mxCell>
        <mxCell id="8oFQcB6DLxekD1Pzao8Z-8" value="" style="html=1;verticalAlign=bottom;labelBackgroundColor=none;endArrow=oval;endFill=0;endSize=8;rounded=0;exitX=1;exitY=0.5;exitDx=0;exitDy=0;" parent="1" source="8oFQcB6DLxekD1Pzao8Z-1" target="8oFQcB6DLxekD1Pzao8Z-9" edge="1">
          <mxGeometry width="160" relative="1" as="geometry">
            <mxPoint x="350" y="10" as="sourcePoint" />
            <mxPoint x="250" y="110" as="targetPoint" />
          </mxGeometry>
        </mxCell>
        <mxCell id="8oFQcB6DLxekD1Pzao8Z-9" value="ritardi" style="text;html=1;align=center;verticalAlign=middle;whiteSpace=wrap;rounded=0;" parent="1" vertex="1">
          <mxGeometry x="230" y="120" width="50" height="30" as="geometry" />
        </mxCell>
        <mxCell id="8oFQcB6DLxekD1Pzao8Z-10" value="" style="html=1;verticalAlign=bottom;labelBackgroundColor=none;endArrow=oval;endFill=0;endSize=8;rounded=0;exitX=0.75;exitY=1;exitDx=0;exitDy=0;" parent="1" source="8oFQcB6DLxekD1Pzao8Z-1" target="8oFQcB6DLxekD1Pzao8Z-11" edge="1">
          <mxGeometry width="160" relative="1" as="geometry">
            <mxPoint x="220" y="205" as="sourcePoint" />
            <mxPoint x="267" y="180" as="targetPoint" />
          </mxGeometry>
        </mxCell>
        <mxCell id="8oFQcB6DLxekD1Pzao8Z-11" value="n° prestiti in corso" style="text;html=1;align=left;verticalAlign=middle;whiteSpace=wrap;rounded=0;" parent="1" vertex="1">
          <mxGeometry x="180" y="180" width="60" height="40" as="geometry" />
        </mxCell>
        <mxCell id="tWrih8uDOpjuwFclcSZ0-1" value="" style="html=1;verticalAlign=bottom;labelBackgroundColor=none;endArrow=oval;endFill=0;endSize=8;rounded=0;exitX=0.25;exitY=0;exitDx=0;exitDy=0;entryX=0.5;entryY=1;entryDx=0;entryDy=0;" parent="1" source="8oFQcB6DLxekD1Pzao8Z-1" target="tWrih8uDOpjuwFclcSZ0-2" edge="1">
          <mxGeometry width="160" relative="1" as="geometry">
            <mxPoint x="80" y="50" as="sourcePoint" />
            <mxPoint x="150" y="80" as="targetPoint" />
            <Array as="points" />
          </mxGeometry>
        </mxCell>
        <mxCell id="tWrih8uDOpjuwFclcSZ0-2" value="indirizzo" style="text;html=1;align=center;verticalAlign=middle;whiteSpace=wrap;rounded=0;" parent="1" vertex="1">
          <mxGeometry x="100" y="70" width="60" height="30" as="geometry" />
        </mxCell>
        <mxCell id="tWrih8uDOpjuwFclcSZ0-3" value="" style="endArrow=none;html=1;rounded=0;exitX=0.75;exitY=0;exitDx=0;exitDy=0;entryX=0.25;entryY=1;entryDx=0;entryDy=0;" parent="1" source="tWrih8uDOpjuwFclcSZ0-2" target="tWrih8uDOpjuwFclcSZ0-6" edge="1">
          <mxGeometry width="50" height="50" relative="1" as="geometry">
            <mxPoint x="150" y="70" as="sourcePoint" />
            <mxPoint x="180" y="40" as="targetPoint" />
          </mxGeometry>
        </mxCell>
        <mxCell id="tWrih8uDOpjuwFclcSZ0-4" value="" style="endArrow=none;html=1;rounded=0;exitX=0.25;exitY=0;exitDx=0;exitDy=0;entryX=0.642;entryY=0.967;entryDx=0;entryDy=0;entryPerimeter=0;" parent="1" source="tWrih8uDOpjuwFclcSZ0-2" target="tWrih8uDOpjuwFclcSZ0-8" edge="1">
          <mxGeometry width="50" height="50" relative="1" as="geometry">
            <mxPoint x="163" y="66" as="sourcePoint" />
            <mxPoint x="80" y="40" as="targetPoint" />
          </mxGeometry>
        </mxCell>
        <mxCell id="tWrih8uDOpjuwFclcSZ0-6" value="via/piazza" style="text;html=1;align=center;verticalAlign=middle;whiteSpace=wrap;rounded=0;" parent="1" vertex="1">
          <mxGeometry x="150" y="20" width="60" height="30" as="geometry" />
        </mxCell>
        <mxCell id="tWrih8uDOpjuwFclcSZ0-8" value="città" style="text;html=1;align=center;verticalAlign=middle;whiteSpace=wrap;rounded=0;" parent="1" vertex="1">
          <mxGeometry x="73" y="20" width="40" height="30" as="geometry" />
        </mxCell>
        <mxCell id="tWrih8uDOpjuwFclcSZ0-9" value="" style="html=1;verticalAlign=bottom;labelBackgroundColor=none;endArrow=oval;endFill=0;endSize=8;rounded=0;exitX=0;exitY=0.5;exitDx=0;exitDy=0;entryX=1;entryY=0.75;entryDx=0;entryDy=0;" parent="1" source="8oFQcB6DLxekD1Pzao8Z-1" target="tWrih8uDOpjuwFclcSZ0-10" edge="1">
          <mxGeometry width="160" relative="1" as="geometry">
            <mxPoint x="20" y="155" as="sourcePoint" />
            <mxPoint x="67" y="130" as="targetPoint" />
          </mxGeometry>
        </mxCell>
        <mxCell id="tWrih8uDOpjuwFclcSZ0-10" value="n° copie gestite" style="text;html=1;align=center;verticalAlign=middle;whiteSpace=wrap;rounded=0;" parent="1" vertex="1">
          <mxGeometry x="20" y="125" width="67" height="30" as="geometry" />
        </mxCell>
        <mxCell id="tWrih8uDOpjuwFclcSZ0-11" value="n° ISBN gestiti" style="text;html=1;align=center;verticalAlign=middle;whiteSpace=wrap;rounded=0;" parent="1" vertex="1">
          <mxGeometry x="73" y="185" width="67" height="45" as="geometry" />
        </mxCell>
        <mxCell id="tWrih8uDOpjuwFclcSZ0-12" value="" style="html=1;verticalAlign=bottom;labelBackgroundColor=none;endArrow=oval;endFill=0;endSize=8;rounded=0;exitX=0.25;exitY=1;exitDx=0;exitDy=0;entryX=0.75;entryY=0;entryDx=0;entryDy=0;" parent="1" source="8oFQcB6DLxekD1Pzao8Z-1" target="tWrih8uDOpjuwFclcSZ0-11" edge="1">
          <mxGeometry width="160" relative="1" as="geometry">
            <mxPoint x="120" y="190" as="sourcePoint" />
            <mxPoint x="47" y="200" as="targetPoint" />
          </mxGeometry>
        </mxCell>
        <mxCell id="tWrih8uDOpjuwFclcSZ0-13" value="LIBRO" style="rounded=0;whiteSpace=wrap;html=1;" parent="1" vertex="1">
          <mxGeometry x="337" y="120" width="80" height="40" as="geometry" />
        </mxCell>
        <mxCell id="tWrih8uDOpjuwFclcSZ0-14" value="ISBN" style="text;html=1;align=center;verticalAlign=middle;whiteSpace=wrap;rounded=0;" parent="1" vertex="1">
          <mxGeometry x="417" y="70" width="43" height="30" as="geometry" />
        </mxCell>
        <mxCell id="tWrih8uDOpjuwFclcSZ0-15" value="" style="endArrow=none;html=1;rounded=0;align=center;verticalAlign=top;endFill=0;labelBackgroundColor=none;endSize=6;startArrow=oval;startFill=1;entryX=0.75;entryY=0;entryDx=0;entryDy=0;exitX=0;exitY=1;exitDx=0;exitDy=0;" parent="1" source="tWrih8uDOpjuwFclcSZ0-14" target="tWrih8uDOpjuwFclcSZ0-13" edge="1">
          <mxGeometry relative="1" as="geometry">
            <mxPoint x="567" y="10" as="sourcePoint" />
            <mxPoint x="727" y="10" as="targetPoint" />
          </mxGeometry>
        </mxCell>
        <mxCell id="tWrih8uDOpjuwFclcSZ0-16" value="" style="html=1;verticalAlign=bottom;labelBackgroundColor=none;endArrow=oval;endFill=0;endSize=8;rounded=0;exitX=1;exitY=0.5;exitDx=0;exitDy=0;entryX=0;entryY=0.5;entryDx=0;entryDy=0;" parent="1" source="tWrih8uDOpjuwFclcSZ0-13" target="tWrih8uDOpjuwFclcSZ0-17" edge="1">
          <mxGeometry width="160" relative="1" as="geometry">
            <mxPoint x="567" y="10" as="sourcePoint" />
            <mxPoint x="467" y="110" as="targetPoint" />
          </mxGeometry>
        </mxCell>
        <mxCell id="tWrih8uDOpjuwFclcSZ0-17" value="titolo" style="text;html=1;align=center;verticalAlign=middle;whiteSpace=wrap;rounded=0;" parent="1" vertex="1">
          <mxGeometry x="447" y="120" width="50" height="30" as="geometry" />
        </mxCell>
        <mxCell id="tWrih8uDOpjuwFclcSZ0-18" value="" style="html=1;verticalAlign=bottom;labelBackgroundColor=none;endArrow=oval;endFill=0;endSize=8;rounded=0;exitX=0.75;exitY=1;exitDx=0;exitDy=0;" parent="1" source="tWrih8uDOpjuwFclcSZ0-13" target="tWrih8uDOpjuwFclcSZ0-19" edge="1">
          <mxGeometry width="160" relative="1" as="geometry">
            <mxPoint x="437" y="205" as="sourcePoint" />
            <mxPoint x="484" y="180" as="targetPoint" />
          </mxGeometry>
        </mxCell>
        <mxCell id="tWrih8uDOpjuwFclcSZ0-19" value="trama" style="text;html=1;align=left;verticalAlign=middle;whiteSpace=wrap;rounded=0;" parent="1" vertex="1">
          <mxGeometry x="397" y="180" width="40" height="30" as="geometry" />
        </mxCell>
        <mxCell id="tWrih8uDOpjuwFclcSZ0-20" value="" style="html=1;verticalAlign=bottom;labelBackgroundColor=none;endArrow=oval;endFill=0;endSize=8;rounded=0;exitX=0.25;exitY=0;exitDx=0;exitDy=0;entryX=0.5;entryY=1;entryDx=0;entryDy=0;" parent="1" source="tWrih8uDOpjuwFclcSZ0-13" target="tWrih8uDOpjuwFclcSZ0-21" edge="1">
          <mxGeometry width="160" relative="1" as="geometry">
            <mxPoint x="297" y="50" as="sourcePoint" />
            <mxPoint x="367" y="80" as="targetPoint" />
            <Array as="points" />
          </mxGeometry>
        </mxCell>
        <mxCell id="tWrih8uDOpjuwFclcSZ0-21" value="autori" style="text;html=1;align=center;verticalAlign=middle;whiteSpace=wrap;rounded=0;" parent="1" vertex="1">
          <mxGeometry x="317" y="50" width="40" height="30" as="geometry" />
        </mxCell>
        <mxCell id="tWrih8uDOpjuwFclcSZ0-26" value="" style="html=1;verticalAlign=bottom;labelBackgroundColor=none;endArrow=oval;endFill=0;endSize=8;rounded=0;exitX=0.25;exitY=1;exitDx=0;exitDy=0;entryX=0.75;entryY=0;entryDx=0;entryDy=0;" parent="1" source="tWrih8uDOpjuwFclcSZ0-13" target="tWrih8uDOpjuwFclcSZ0-27" edge="1">
          <mxGeometry width="160" relative="1" as="geometry">
            <mxPoint x="237" y="155" as="sourcePoint" />
            <mxPoint x="284" y="130" as="targetPoint" />
          </mxGeometry>
        </mxCell>
        <mxCell id="tWrih8uDOpjuwFclcSZ0-27" value="è disponibile" style="text;html=1;align=center;verticalAlign=middle;whiteSpace=wrap;rounded=0;" parent="1" vertex="1">
          <mxGeometry x="250" y="185" width="87" height="30" as="geometry" />
        </mxCell>
        <mxCell id="tWrih8uDOpjuwFclcSZ0-28" value="casa editrice" style="text;html=1;align=center;verticalAlign=middle;whiteSpace=wrap;rounded=0;" parent="1" vertex="1">
          <mxGeometry x="337" y="190" width="47" height="35" as="geometry" />
        </mxCell>
        <mxCell id="tWrih8uDOpjuwFclcSZ0-29" value="" style="html=1;verticalAlign=bottom;labelBackgroundColor=none;endArrow=oval;endFill=0;endSize=8;rounded=0;exitX=0.5;exitY=1;exitDx=0;exitDy=0;entryX=0.75;entryY=0;entryDx=0;entryDy=0;" parent="1" source="tWrih8uDOpjuwFclcSZ0-13" target="tWrih8uDOpjuwFclcSZ0-28" edge="1">
          <mxGeometry width="160" relative="1" as="geometry">
            <mxPoint x="337" y="190" as="sourcePoint" />
            <mxPoint x="264" y="200" as="targetPoint" />
          </mxGeometry>
        </mxCell>
        <mxCell id="tWrih8uDOpjuwFclcSZ0-30" value="(1, N)" style="text;html=1;align=center;verticalAlign=middle;whiteSpace=wrap;rounded=0;labelBackgroundColor=default;" parent="1" vertex="1">
          <mxGeometry x="324" y="90" width="40" height="20" as="geometry" />
        </mxCell>
        <mxCell id="tWrih8uDOpjuwFclcSZ0-33" value="COPIA LIBRO" style="rounded=0;whiteSpace=wrap;html=1;" parent="1" vertex="1">
          <mxGeometry x="520" y="120" width="70" height="40" as="geometry" />
        </mxCell>
        <mxCell id="tWrih8uDOpjuwFclcSZ0-34" value="id" style="text;html=1;align=center;verticalAlign=middle;whiteSpace=wrap;rounded=0;" parent="1" vertex="1">
          <mxGeometry x="580" y="70" width="20" height="30" as="geometry" />
        </mxCell>
        <mxCell id="tWrih8uDOpjuwFclcSZ0-35" value="" style="endArrow=none;html=1;rounded=0;align=center;verticalAlign=top;endFill=0;labelBackgroundColor=none;endSize=6;startArrow=oval;startFill=1;entryX=0.75;entryY=0;entryDx=0;entryDy=0;exitX=0;exitY=1;exitDx=0;exitDy=0;" parent="1" source="tWrih8uDOpjuwFclcSZ0-34" target="tWrih8uDOpjuwFclcSZ0-33" edge="1">
          <mxGeometry relative="1" as="geometry">
            <mxPoint x="750" y="10" as="sourcePoint" />
            <mxPoint x="910" y="10" as="targetPoint" />
          </mxGeometry>
        </mxCell>
        <mxCell id="tWrih8uDOpjuwFclcSZ0-36" value="" style="html=1;verticalAlign=bottom;labelBackgroundColor=none;endArrow=oval;endFill=0;endSize=8;rounded=0;exitX=0.25;exitY=0;exitDx=0;exitDy=0;" parent="1" source="tWrih8uDOpjuwFclcSZ0-33" target="tWrih8uDOpjuwFclcSZ0-37" edge="1">
          <mxGeometry width="160" relative="1" as="geometry">
            <mxPoint x="750" y="10" as="sourcePoint" />
            <mxPoint x="650" y="110" as="targetPoint" />
          </mxGeometry>
        </mxCell>
        <mxCell id="tWrih8uDOpjuwFclcSZ0-37" value="sede" style="text;html=1;align=center;verticalAlign=middle;whiteSpace=wrap;rounded=0;" parent="1" vertex="1">
          <mxGeometry x="480" y="70" width="50" height="30" as="geometry" />
        </mxCell>
        <mxCell id="tWrih8uDOpjuwFclcSZ0-47" value="PRESTITO" style="rounded=0;whiteSpace=wrap;html=1;" parent="1" vertex="1">
          <mxGeometry x="90" y="360" width="80" height="40" as="geometry" />
        </mxCell>
        <mxCell id="tWrih8uDOpjuwFclcSZ0-50" value="" style="html=1;verticalAlign=bottom;labelBackgroundColor=none;endArrow=oval;endFill=0;endSize=8;rounded=0;exitX=1;exitY=0.5;exitDx=0;exitDy=0;" parent="1" source="tWrih8uDOpjuwFclcSZ0-47" target="tWrih8uDOpjuwFclcSZ0-51" edge="1">
          <mxGeometry width="160" relative="1" as="geometry">
            <mxPoint x="320" y="250" as="sourcePoint" />
            <mxPoint x="220" y="350" as="targetPoint" />
          </mxGeometry>
        </mxCell>
        <mxCell id="tWrih8uDOpjuwFclcSZ0-51" value="data restituzione" style="text;html=1;align=center;verticalAlign=middle;whiteSpace=wrap;rounded=0;" parent="1" vertex="1">
          <mxGeometry x="200" y="360" width="80" height="30" as="geometry" />
        </mxCell>
        <mxCell id="tWrih8uDOpjuwFclcSZ0-52" value="" style="html=1;verticalAlign=bottom;labelBackgroundColor=none;endArrow=oval;endFill=0;endSize=8;rounded=0;exitX=0.75;exitY=1;exitDx=0;exitDy=0;" parent="1" source="tWrih8uDOpjuwFclcSZ0-47" target="tWrih8uDOpjuwFclcSZ0-53" edge="1">
          <mxGeometry width="160" relative="1" as="geometry">
            <mxPoint x="190" y="445" as="sourcePoint" />
            <mxPoint x="237" y="420" as="targetPoint" />
          </mxGeometry>
        </mxCell>
        <mxCell id="tWrih8uDOpjuwFclcSZ0-53" value="durata massima prestito" style="text;html=1;align=left;verticalAlign=middle;whiteSpace=wrap;rounded=0;" parent="1" vertex="1">
          <mxGeometry x="150" y="420" width="90" height="40" as="geometry" />
        </mxCell>
        <mxCell id="tWrih8uDOpjuwFclcSZ0-54" value="" style="html=1;verticalAlign=bottom;labelBackgroundColor=none;endArrow=oval;endFill=0;endSize=8;rounded=0;exitX=0.5;exitY=0;exitDx=0;exitDy=0;entryX=0.5;entryY=1;entryDx=0;entryDy=0;" parent="1" source="tWrih8uDOpjuwFclcSZ0-47" target="tWrih8uDOpjuwFclcSZ0-55" edge="1">
          <mxGeometry width="160" relative="1" as="geometry">
            <mxPoint x="50" y="290" as="sourcePoint" />
            <mxPoint x="120" y="320" as="targetPoint" />
            <Array as="points" />
          </mxGeometry>
        </mxCell>
        <mxCell id="tWrih8uDOpjuwFclcSZ0-55" value="copia libro" style="text;html=1;align=center;verticalAlign=middle;whiteSpace=wrap;rounded=0;" parent="1" vertex="1">
          <mxGeometry x="100" y="300" width="60" height="30" as="geometry" />
        </mxCell>
        <mxCell id="tWrih8uDOpjuwFclcSZ0-60" value="" style="html=1;verticalAlign=bottom;labelBackgroundColor=none;endArrow=oval;endFill=0;endSize=8;rounded=0;exitX=0.25;exitY=0;exitDx=0;exitDy=0;entryX=0.75;entryY=1;entryDx=0;entryDy=0;" parent="1" source="tWrih8uDOpjuwFclcSZ0-47" target="tWrih8uDOpjuwFclcSZ0-62" edge="1">
          <mxGeometry width="160" relative="1" as="geometry">
            <mxPoint x="-10" y="395" as="sourcePoint" />
            <mxPoint x="70" y="350" as="targetPoint" />
          </mxGeometry>
        </mxCell>
        <mxCell id="tWrih8uDOpjuwFclcSZ0-61" value="scadenza prestito" style="text;html=1;align=center;verticalAlign=middle;whiteSpace=wrap;rounded=0;fontStyle=0" parent="1" vertex="1">
          <mxGeometry x="20" y="425" width="110" height="25" as="geometry" />
        </mxCell>
        <mxCell id="tWrih8uDOpjuwFclcSZ0-62" value="data prestito" style="text;html=1;align=center;verticalAlign=middle;whiteSpace=wrap;rounded=0;" parent="1" vertex="1">
          <mxGeometry x="23" y="302.5" width="77" height="25" as="geometry" />
        </mxCell>
        <mxCell id="tWrih8uDOpjuwFclcSZ0-63" value="" style="html=1;verticalAlign=bottom;labelBackgroundColor=none;endArrow=oval;endFill=0;endSize=8;rounded=0;exitX=0.25;exitY=1;exitDx=0;exitDy=0;entryX=0.75;entryY=0;entryDx=0;entryDy=0;" parent="1" source="tWrih8uDOpjuwFclcSZ0-47" target="tWrih8uDOpjuwFclcSZ0-61" edge="1">
          <mxGeometry width="160" relative="1" as="geometry">
            <mxPoint x="90" y="430" as="sourcePoint" />
            <mxPoint x="140" y="420" as="targetPoint" />
          </mxGeometry>
        </mxCell>
        <mxCell id="tWrih8uDOpjuwFclcSZ0-64" value="" style="html=1;verticalAlign=bottom;labelBackgroundColor=none;endArrow=oval;endFill=0;endSize=8;rounded=0;exitX=0.75;exitY=0;exitDx=0;exitDy=0;" parent="1" source="tWrih8uDOpjuwFclcSZ0-47" target="tWrih8uDOpjuwFclcSZ0-65" edge="1">
          <mxGeometry width="160" relative="1" as="geometry">
            <mxPoint x="140" y="340" as="sourcePoint" />
            <mxPoint x="190" y="310" as="targetPoint" />
          </mxGeometry>
        </mxCell>
        <mxCell id="tWrih8uDOpjuwFclcSZ0-65" value="lettore" style="text;html=1;align=center;verticalAlign=middle;whiteSpace=wrap;rounded=0;" parent="1" vertex="1">
          <mxGeometry x="160" y="300" width="50" height="30" as="geometry" />
        </mxCell>
        <mxCell id="tWrih8uDOpjuwFclcSZ0-67" value="" style="endArrow=none;html=1;rounded=0;align=center;verticalAlign=top;endFill=0;labelBackgroundColor=none;endSize=6;startArrow=oval;startFill=1;" parent="1" edge="1">
          <mxGeometry relative="1" as="geometry">
            <mxPoint x="190" y="340" as="sourcePoint" />
            <mxPoint x="73" y="340" as="targetPoint" />
          </mxGeometry>
        </mxCell>
        <mxCell id="tWrih8uDOpjuwFclcSZ0-81" value="LETTORE" style="rounded=0;whiteSpace=wrap;html=1;" parent="1" vertex="1">
          <mxGeometry x="313.5" y="358.75" width="80" height="40" as="geometry" />
        </mxCell>
        <mxCell id="tWrih8uDOpjuwFclcSZ0-82" value="" style="html=1;verticalAlign=bottom;labelBackgroundColor=none;endArrow=oval;endFill=0;endSize=8;rounded=0;exitX=1;exitY=0.25;exitDx=0;exitDy=0;" parent="1" source="tWrih8uDOpjuwFclcSZ0-81" target="tWrih8uDOpjuwFclcSZ0-83" edge="1">
          <mxGeometry width="160" relative="1" as="geometry">
            <mxPoint x="543.5" y="248.75" as="sourcePoint" />
            <mxPoint x="443.5" y="348.75" as="targetPoint" />
          </mxGeometry>
        </mxCell>
        <mxCell id="tWrih8uDOpjuwFclcSZ0-83" value="nome" style="text;html=1;align=center;verticalAlign=middle;whiteSpace=wrap;rounded=0;" parent="1" vertex="1">
          <mxGeometry x="423.5" y="348.75" width="50" height="20" as="geometry" />
        </mxCell>
        <mxCell id="tWrih8uDOpjuwFclcSZ0-84" value="" style="html=1;verticalAlign=bottom;labelBackgroundColor=none;endArrow=oval;endFill=0;endSize=8;rounded=0;exitX=0.75;exitY=1;exitDx=0;exitDy=0;" parent="1" source="tWrih8uDOpjuwFclcSZ0-81" target="tWrih8uDOpjuwFclcSZ0-85" edge="1">
          <mxGeometry width="160" relative="1" as="geometry">
            <mxPoint x="413.5" y="443.75" as="sourcePoint" />
            <mxPoint x="460.5" y="418.75" as="targetPoint" />
          </mxGeometry>
        </mxCell>
        <mxCell id="tWrih8uDOpjuwFclcSZ0-85" value="categoria" style="text;html=1;align=left;verticalAlign=middle;whiteSpace=wrap;rounded=0;" parent="1" vertex="1">
          <mxGeometry x="378.5" y="423.75" width="60" height="20" as="geometry" />
        </mxCell>
        <mxCell id="tWrih8uDOpjuwFclcSZ0-86" value="" style="html=1;verticalAlign=bottom;labelBackgroundColor=none;endArrow=oval;endFill=0;endSize=8;rounded=0;exitX=0.5;exitY=0;exitDx=0;exitDy=0;entryX=0.5;entryY=1;entryDx=0;entryDy=0;" parent="1" source="tWrih8uDOpjuwFclcSZ0-81" target="tWrih8uDOpjuwFclcSZ0-87" edge="1">
          <mxGeometry width="160" relative="1" as="geometry">
            <mxPoint x="273.5" y="288.75" as="sourcePoint" />
            <mxPoint x="343.5" y="318.75" as="targetPoint" />
            <Array as="points" />
          </mxGeometry>
        </mxCell>
        <mxCell id="tWrih8uDOpjuwFclcSZ0-87" value="email" style="text;html=1;align=center;verticalAlign=middle;whiteSpace=wrap;rounded=0;" parent="1" vertex="1">
          <mxGeometry x="333.5" y="301.25" width="40" height="30" as="geometry" />
        </mxCell>
        <mxCell id="tWrih8uDOpjuwFclcSZ0-88" value="" style="html=1;verticalAlign=bottom;labelBackgroundColor=none;endArrow=oval;endFill=0;endSize=8;rounded=0;exitX=0.25;exitY=0;exitDx=0;exitDy=0;entryX=0.75;entryY=1;entryDx=0;entryDy=0;" parent="1" source="tWrih8uDOpjuwFclcSZ0-81" target="tWrih8uDOpjuwFclcSZ0-90" edge="1">
          <mxGeometry width="160" relative="1" as="geometry">
            <mxPoint x="213.5" y="393.75" as="sourcePoint" />
            <mxPoint x="293.5" y="348.75" as="targetPoint" />
          </mxGeometry>
        </mxCell>
        <mxCell id="tWrih8uDOpjuwFclcSZ0-89" value="n° volumi in ritardo" style="text;html=1;align=center;verticalAlign=middle;whiteSpace=wrap;rounded=0;fontStyle=0" parent="1" vertex="1">
          <mxGeometry x="268.5" y="420" width="60" height="35" as="geometry" />
        </mxCell>
        <mxCell id="tWrih8uDOpjuwFclcSZ0-90" value="password" style="text;html=1;align=center;verticalAlign=middle;whiteSpace=wrap;rounded=0;" parent="1" vertex="1">
          <mxGeometry x="270" y="311.25" width="57" height="25" as="geometry" />
        </mxCell>
        <mxCell id="tWrih8uDOpjuwFclcSZ0-91" value="" style="html=1;verticalAlign=bottom;labelBackgroundColor=none;endArrow=oval;endFill=0;endSize=8;rounded=0;exitX=0.25;exitY=1;exitDx=0;exitDy=0;entryX=0.75;entryY=0;entryDx=0;entryDy=0;" parent="1" source="tWrih8uDOpjuwFclcSZ0-81" target="tWrih8uDOpjuwFclcSZ0-89" edge="1">
          <mxGeometry width="160" relative="1" as="geometry">
            <mxPoint x="313.5" y="428.75" as="sourcePoint" />
            <mxPoint x="363.5" y="418.75" as="targetPoint" />
          </mxGeometry>
        </mxCell>
        <mxCell id="tWrih8uDOpjuwFclcSZ0-93" value="c.f." style="text;html=1;align=center;verticalAlign=middle;whiteSpace=wrap;rounded=0;" parent="1" vertex="1">
          <mxGeometry x="397" y="308.75" width="30" height="30" as="geometry" />
        </mxCell>
        <mxCell id="tWrih8uDOpjuwFclcSZ0-95" value="" style="endArrow=none;html=1;rounded=0;align=center;verticalAlign=top;endFill=0;labelBackgroundColor=none;endSize=6;startArrow=oval;startFill=1;entryX=0.75;entryY=0;entryDx=0;entryDy=0;exitX=0;exitY=0.75;exitDx=0;exitDy=0;" parent="1" source="tWrih8uDOpjuwFclcSZ0-93" target="tWrih8uDOpjuwFclcSZ0-81" edge="1">
          <mxGeometry relative="1" as="geometry">
            <mxPoint x="400.5" y="108.75" as="sourcePoint" />
            <mxPoint x="380.5" y="128.75" as="targetPoint" />
          </mxGeometry>
        </mxCell>
        <mxCell id="tWrih8uDOpjuwFclcSZ0-96" value="" style="html=1;verticalAlign=bottom;labelBackgroundColor=none;endArrow=oval;endFill=0;endSize=8;rounded=0;exitX=1;exitY=0.75;exitDx=0;exitDy=0;" parent="1" source="tWrih8uDOpjuwFclcSZ0-81" target="tWrih8uDOpjuwFclcSZ0-97" edge="1">
          <mxGeometry width="160" relative="1" as="geometry">
            <mxPoint x="398.5" y="398.75" as="sourcePoint" />
            <mxPoint x="448.5" y="378.75" as="targetPoint" />
          </mxGeometry>
        </mxCell>
        <mxCell id="tWrih8uDOpjuwFclcSZ0-97" value="cognome" style="text;html=1;align=center;verticalAlign=middle;whiteSpace=wrap;rounded=0;" parent="1" vertex="1">
          <mxGeometry x="423.5" y="388.75" width="65" height="20" as="geometry" />
        </mxCell>
        <mxCell id="tWrih8uDOpjuwFclcSZ0-98" value="AUTORE" style="rounded=0;whiteSpace=wrap;html=1;" parent="1" vertex="1">
          <mxGeometry x="661.75" y="121.25" width="80" height="40" as="geometry" />
        </mxCell>
        <mxCell id="tWrih8uDOpjuwFclcSZ0-99" value="" style="html=1;verticalAlign=bottom;labelBackgroundColor=none;endArrow=oval;endFill=0;endSize=8;rounded=0;exitX=1;exitY=0.25;exitDx=0;exitDy=0;" parent="1" source="tWrih8uDOpjuwFclcSZ0-98" target="tWrih8uDOpjuwFclcSZ0-100" edge="1">
          <mxGeometry width="160" relative="1" as="geometry">
            <mxPoint x="891.75" y="11.25" as="sourcePoint" />
            <mxPoint x="791.75" y="111.25" as="targetPoint" />
          </mxGeometry>
        </mxCell>
        <mxCell id="tWrih8uDOpjuwFclcSZ0-100" value="nome" style="text;html=1;align=center;verticalAlign=middle;whiteSpace=wrap;rounded=0;" parent="1" vertex="1">
          <mxGeometry x="771.75" y="111.25" width="50" height="20" as="geometry" />
        </mxCell>
        <mxCell id="tWrih8uDOpjuwFclcSZ0-101" value="" style="html=1;verticalAlign=bottom;labelBackgroundColor=none;endArrow=oval;endFill=0;endSize=8;rounded=0;exitX=0.75;exitY=1;exitDx=0;exitDy=0;" parent="1" source="tWrih8uDOpjuwFclcSZ0-98" target="tWrih8uDOpjuwFclcSZ0-102" edge="1">
          <mxGeometry width="160" relative="1" as="geometry">
            <mxPoint x="761.75" y="206.25" as="sourcePoint" />
            <mxPoint x="808.75" y="181.25" as="targetPoint" />
          </mxGeometry>
        </mxCell>
        <mxCell id="tWrih8uDOpjuwFclcSZ0-102" value="data di nascita" style="text;html=1;align=left;verticalAlign=middle;whiteSpace=wrap;rounded=0;" parent="1" vertex="1">
          <mxGeometry x="726.75" y="186.25" width="84.5" height="20" as="geometry" />
        </mxCell>
        <mxCell id="tWrih8uDOpjuwFclcSZ0-103" value="" style="html=1;verticalAlign=bottom;labelBackgroundColor=none;endArrow=oval;endFill=0;endSize=8;rounded=0;exitX=0.5;exitY=0;exitDx=0;exitDy=0;entryX=0.5;entryY=1;entryDx=0;entryDy=0;" parent="1" source="tWrih8uDOpjuwFclcSZ0-98" target="tWrih8uDOpjuwFclcSZ0-104" edge="1">
          <mxGeometry width="160" relative="1" as="geometry">
            <mxPoint x="621.75" y="51.25" as="sourcePoint" />
            <mxPoint x="691.75" y="81.25" as="targetPoint" />
            <Array as="points" />
          </mxGeometry>
        </mxCell>
        <mxCell id="tWrih8uDOpjuwFclcSZ0-104" value="biografia" style="text;html=1;align=center;verticalAlign=middle;whiteSpace=wrap;rounded=0;" parent="1" vertex="1">
          <mxGeometry x="670.75" y="70" width="50.5" height="30" as="geometry" />
        </mxCell>
        <mxCell id="tWrih8uDOpjuwFclcSZ0-106" value="data di morte" style="text;html=1;align=center;verticalAlign=middle;whiteSpace=wrap;rounded=0;fontStyle=0" parent="1" vertex="1">
          <mxGeometry x="658.5" y="206.25" width="42.5" height="35" as="geometry" />
        </mxCell>
        <mxCell id="tWrih8uDOpjuwFclcSZ0-108" value="" style="html=1;verticalAlign=bottom;labelBackgroundColor=none;endArrow=oval;endFill=0;endSize=8;rounded=0;exitX=0.25;exitY=1;exitDx=0;exitDy=0;entryX=0.5;entryY=0;entryDx=0;entryDy=0;" parent="1" source="tWrih8uDOpjuwFclcSZ0-98" target="tWrih8uDOpjuwFclcSZ0-106" edge="1">
          <mxGeometry width="160" relative="1" as="geometry">
            <mxPoint x="661.75" y="191.25" as="sourcePoint" />
            <mxPoint x="711.75" y="181.25" as="targetPoint" />
          </mxGeometry>
        </mxCell>
        <mxCell id="tWrih8uDOpjuwFclcSZ0-109" value="id" style="text;html=1;align=center;verticalAlign=middle;whiteSpace=wrap;rounded=0;" parent="1" vertex="1">
          <mxGeometry x="741.75" y="81.25" width="26" height="30" as="geometry" />
        </mxCell>
        <mxCell id="tWrih8uDOpjuwFclcSZ0-110" value="" style="endArrow=none;html=1;rounded=0;align=center;verticalAlign=top;endFill=0;labelBackgroundColor=none;endSize=6;startArrow=oval;startFill=1;entryX=0.75;entryY=0;entryDx=0;entryDy=0;exitX=0;exitY=0.75;exitDx=0;exitDy=0;" parent="1" source="tWrih8uDOpjuwFclcSZ0-109" target="tWrih8uDOpjuwFclcSZ0-98" edge="1">
          <mxGeometry relative="1" as="geometry">
            <mxPoint x="748.75" y="-128.75" as="sourcePoint" />
            <mxPoint x="728.75" y="-108.75" as="targetPoint" />
          </mxGeometry>
        </mxCell>
        <mxCell id="tWrih8uDOpjuwFclcSZ0-111" value="" style="html=1;verticalAlign=bottom;labelBackgroundColor=none;endArrow=oval;endFill=0;endSize=8;rounded=0;exitX=1;exitY=0.75;exitDx=0;exitDy=0;" parent="1" source="tWrih8uDOpjuwFclcSZ0-98" target="tWrih8uDOpjuwFclcSZ0-112" edge="1">
          <mxGeometry width="160" relative="1" as="geometry">
            <mxPoint x="746.75" y="161.25" as="sourcePoint" />
            <mxPoint x="796.75" y="141.25" as="targetPoint" />
          </mxGeometry>
        </mxCell>
        <mxCell id="tWrih8uDOpjuwFclcSZ0-112" value="cognome" style="text;html=1;align=center;verticalAlign=middle;whiteSpace=wrap;rounded=0;" parent="1" vertex="1">
          <mxGeometry x="771.75" y="151.25" width="65" height="20" as="geometry" />
        </mxCell>
        <mxCell id="tWrih8uDOpjuwFclcSZ0-113" value="(0, 1)" style="text;html=1;align=center;verticalAlign=middle;whiteSpace=wrap;rounded=0;labelBackgroundColor=default;" parent="1" vertex="1">
          <mxGeometry x="658.5" y="171.25" width="40" height="20" as="geometry" />
        </mxCell>
        <mxCell id="tWrih8uDOpjuwFclcSZ0-114" value="BIBLIOTECARIO" style="rounded=0;whiteSpace=wrap;html=1;" parent="1" vertex="1">
          <mxGeometry x="527.75" y="358.75" width="100" height="40" as="geometry" />
        </mxCell>
        <mxCell id="tWrih8uDOpjuwFclcSZ0-115" value="id" style="text;html=1;align=center;verticalAlign=middle;whiteSpace=wrap;rounded=0;" parent="1" vertex="1">
          <mxGeometry x="607.75" y="301.25" width="20" height="30" as="geometry" />
        </mxCell>
        <mxCell id="tWrih8uDOpjuwFclcSZ0-116" value="" style="endArrow=none;html=1;rounded=0;align=center;verticalAlign=top;endFill=0;labelBackgroundColor=none;endSize=6;startArrow=oval;startFill=1;entryX=0.75;entryY=0;entryDx=0;entryDy=0;exitX=0.5;exitY=1;exitDx=0;exitDy=0;" parent="1" source="tWrih8uDOpjuwFclcSZ0-115" target="tWrih8uDOpjuwFclcSZ0-114" edge="1">
          <mxGeometry relative="1" as="geometry">
            <mxPoint x="757.75" y="248.75" as="sourcePoint" />
            <mxPoint x="917.75" y="248.75" as="targetPoint" />
          </mxGeometry>
        </mxCell>
        <mxCell id="tWrih8uDOpjuwFclcSZ0-117" value="" style="html=1;verticalAlign=bottom;labelBackgroundColor=none;endArrow=oval;endFill=0;endSize=8;rounded=0;exitX=0.5;exitY=0;exitDx=0;exitDy=0;" parent="1" source="tWrih8uDOpjuwFclcSZ0-114" target="tWrih8uDOpjuwFclcSZ0-118" edge="1">
          <mxGeometry width="160" relative="1" as="geometry">
            <mxPoint x="757.75" y="248.75" as="sourcePoint" />
            <mxPoint x="657.75" y="348.75" as="targetPoint" />
          </mxGeometry>
        </mxCell>
        <mxCell id="tWrih8uDOpjuwFclcSZ0-118" value="email" style="text;html=1;align=center;verticalAlign=middle;whiteSpace=wrap;rounded=0;" parent="1" vertex="1">
          <mxGeometry x="556.25" y="296.25" width="40" height="30" as="geometry" />
        </mxCell>
        <mxCell id="tWrih8uDOpjuwFclcSZ0-121" value="" style="html=1;verticalAlign=bottom;labelBackgroundColor=none;endArrow=oval;endFill=0;endSize=8;rounded=0;exitX=0.25;exitY=0;exitDx=0;exitDy=0;" parent="1" source="tWrih8uDOpjuwFclcSZ0-114" target="tWrih8uDOpjuwFclcSZ0-122" edge="1">
          <mxGeometry width="160" relative="1" as="geometry">
            <mxPoint x="527" y="347.5" as="sourcePoint" />
            <mxPoint x="607" y="337.5" as="targetPoint" />
          </mxGeometry>
        </mxCell>
        <mxCell id="tWrih8uDOpjuwFclcSZ0-122" value="password" style="text;html=1;align=center;verticalAlign=middle;whiteSpace=wrap;rounded=0;" parent="1" vertex="1">
          <mxGeometry x="497" y="301.25" width="59.25" height="30" as="geometry" />
        </mxCell>
        <mxCell id="tWrih8uDOpjuwFclcSZ0-123" value="" style="html=1;verticalAlign=bottom;labelBackgroundColor=none;endArrow=oval;endFill=0;endSize=8;rounded=0;exitX=0.75;exitY=1;exitDx=0;exitDy=0;entryX=0.5;entryY=0;entryDx=0;entryDy=0;" parent="1" source="tWrih8uDOpjuwFclcSZ0-33" target="tWrih8uDOpjuwFclcSZ0-124" edge="1">
          <mxGeometry width="160" relative="1" as="geometry">
            <mxPoint x="555" y="170" as="sourcePoint" />
            <mxPoint x="540" y="240" as="targetPoint" />
          </mxGeometry>
        </mxCell>
        <mxCell id="tWrih8uDOpjuwFclcSZ0-124" value="è disponibile" style="text;html=1;align=center;verticalAlign=middle;whiteSpace=wrap;rounded=0;" parent="1" vertex="1">
          <mxGeometry x="553.75" y="187.5" width="80" height="25" as="geometry" />
        </mxCell>
        <mxCell id="tWrih8uDOpjuwFclcSZ0-125" value="" style="html=1;verticalAlign=bottom;labelBackgroundColor=none;endArrow=oval;endFill=0;endSize=8;rounded=0;exitX=0.25;exitY=1;exitDx=0;exitDy=0;entryX=0.5;entryY=0;entryDx=0;entryDy=0;" parent="1" source="tWrih8uDOpjuwFclcSZ0-33" target="tWrih8uDOpjuwFclcSZ0-126" edge="1">
          <mxGeometry width="160" relative="1" as="geometry">
            <mxPoint x="493" y="160" as="sourcePoint" />
            <mxPoint x="460" y="240" as="targetPoint" />
          </mxGeometry>
        </mxCell>
        <mxCell id="tWrih8uDOpjuwFclcSZ0-126" value="libro" style="text;html=1;align=center;verticalAlign=middle;whiteSpace=wrap;rounded=0;" parent="1" vertex="1">
          <mxGeometry x="507.38" y="187.5" width="33.75" height="25" as="geometry" />
        </mxCell>
        <mxCell id="tWrih8uDOpjuwFclcSZ0-127" value="" style="html=1;verticalAlign=bottom;labelBackgroundColor=none;endArrow=oval;endFill=0;endSize=8;rounded=0;exitX=0.5;exitY=1;exitDx=0;exitDy=0;entryX=0.5;entryY=0;entryDx=0;entryDy=0;" parent="1" source="tWrih8uDOpjuwFclcSZ0-81" target="tWrih8uDOpjuwFclcSZ0-128" edge="1">
          <mxGeometry width="160" relative="1" as="geometry">
            <mxPoint x="380.5" y="443.75" as="sourcePoint" />
            <mxPoint x="410" y="463.5" as="targetPoint" />
          </mxGeometry>
        </mxCell>
        <mxCell id="tWrih8uDOpjuwFclcSZ0-128" value="n° libri in prestito" style="text;html=1;align=center;verticalAlign=middle;whiteSpace=wrap;rounded=0;fontStyle=0" parent="1" vertex="1">
          <mxGeometry x="322" y="431.25" width="63" height="38.75" as="geometry" />
        </mxCell>
      </root>
    </mxGraphModel>
  </diagram>
  <diagram name="Schema Concettuale" id="WSVO54BexwJOF9ah1vRc">
    <mxGraphModel dx="1147" dy="670" grid="1" gridSize="10" guides="1" tooltips="1" connect="1" arrows="1" fold="1" page="1" pageScale="1" pageWidth="827" pageHeight="1169" math="0" shadow="0">
      <root>
        <mxCell id="avYuVaTCZwgV6i5RGNvt-0" />
        <mxCell id="avYuVaTCZwgV6i5RGNvt-1" parent="avYuVaTCZwgV6i5RGNvt-0" />
        <mxCell id="avYuVaTCZwgV6i5RGNvt-2" value="LIBRO" style="rounded=0;whiteSpace=wrap;html=1;" parent="avYuVaTCZwgV6i5RGNvt-1" vertex="1">
          <mxGeometry x="518" y="500" width="80" height="40" as="geometry" />
        </mxCell>
        <mxCell id="avYuVaTCZwgV6i5RGNvt-3" value="ISBN" style="text;html=1;align=center;verticalAlign=middle;whiteSpace=wrap;rounded=0;" parent="avYuVaTCZwgV6i5RGNvt-1" vertex="1">
          <mxGeometry x="598" y="450" width="43" height="30" as="geometry" />
        </mxCell>
        <mxCell id="avYuVaTCZwgV6i5RGNvt-4" value="" style="endArrow=none;html=1;rounded=0;align=center;verticalAlign=top;endFill=0;labelBackgroundColor=none;endSize=6;startArrow=oval;startFill=1;entryX=0.75;entryY=0;entryDx=0;entryDy=0;exitX=0;exitY=1;exitDx=0;exitDy=0;" parent="avYuVaTCZwgV6i5RGNvt-1" source="avYuVaTCZwgV6i5RGNvt-3" target="avYuVaTCZwgV6i5RGNvt-2" edge="1">
          <mxGeometry relative="1" as="geometry">
            <mxPoint x="728" y="375" as="sourcePoint" />
            <mxPoint x="888" y="375" as="targetPoint" />
          </mxGeometry>
        </mxCell>
        <mxCell id="avYuVaTCZwgV6i5RGNvt-5" value="" style="html=1;verticalAlign=bottom;labelBackgroundColor=none;endArrow=oval;endFill=0;endSize=8;rounded=0;entryX=0.75;entryY=1;entryDx=0;entryDy=0;exitX=0.25;exitY=0;exitDx=0;exitDy=0;" parent="avYuVaTCZwgV6i5RGNvt-1" source="avYuVaTCZwgV6i5RGNvt-2" target="avYuVaTCZwgV6i5RGNvt-6" edge="1">
          <mxGeometry width="160" relative="1" as="geometry">
            <mxPoint x="494" y="505" as="sourcePoint" />
            <mxPoint x="628" y="475" as="targetPoint" />
          </mxGeometry>
        </mxCell>
        <mxCell id="avYuVaTCZwgV6i5RGNvt-6" value="titolo" style="text;html=1;align=center;verticalAlign=middle;whiteSpace=wrap;rounded=0;" parent="avYuVaTCZwgV6i5RGNvt-1" vertex="1">
          <mxGeometry x="473" y="450" width="50" height="30" as="geometry" />
        </mxCell>
        <mxCell id="avYuVaTCZwgV6i5RGNvt-7" value="" style="html=1;verticalAlign=bottom;labelBackgroundColor=none;endArrow=oval;endFill=0;endSize=8;rounded=0;exitX=0.75;exitY=1;exitDx=0;exitDy=0;" parent="avYuVaTCZwgV6i5RGNvt-1" source="avYuVaTCZwgV6i5RGNvt-2" target="avYuVaTCZwgV6i5RGNvt-8" edge="1">
          <mxGeometry width="160" relative="1" as="geometry">
            <mxPoint x="598" y="570" as="sourcePoint" />
            <mxPoint x="645" y="545" as="targetPoint" />
          </mxGeometry>
        </mxCell>
        <mxCell id="avYuVaTCZwgV6i5RGNvt-8" value="trama" style="text;html=1;align=left;verticalAlign=middle;whiteSpace=wrap;rounded=0;" parent="avYuVaTCZwgV6i5RGNvt-1" vertex="1">
          <mxGeometry x="577.25" y="560" width="40" height="30" as="geometry" />
        </mxCell>
        <mxCell id="avYuVaTCZwgV6i5RGNvt-9" value="" style="html=1;verticalAlign=bottom;labelBackgroundColor=none;endArrow=oval;endFill=0;endSize=8;rounded=0;exitX=0.25;exitY=1;exitDx=0;exitDy=0;entryX=0.75;entryY=0;entryDx=0;entryDy=0;" parent="avYuVaTCZwgV6i5RGNvt-1" source="avYuVaTCZwgV6i5RGNvt-2" target="avYuVaTCZwgV6i5RGNvt-10" edge="1">
          <mxGeometry width="160" relative="1" as="geometry">
            <mxPoint x="398" y="520" as="sourcePoint" />
            <mxPoint x="445" y="495" as="targetPoint" />
          </mxGeometry>
        </mxCell>
        <mxCell id="avYuVaTCZwgV6i5RGNvt-10" value="è disponibile" style="text;html=1;align=center;verticalAlign=middle;whiteSpace=wrap;rounded=0;" parent="avYuVaTCZwgV6i5RGNvt-1" vertex="1">
          <mxGeometry x="444.75" y="570" width="87" height="30" as="geometry" />
        </mxCell>
        <mxCell id="avYuVaTCZwgV6i5RGNvt-11" value="casa editrice" style="text;html=1;align=center;verticalAlign=middle;whiteSpace=wrap;rounded=0;" parent="avYuVaTCZwgV6i5RGNvt-1" vertex="1">
          <mxGeometry x="531.75" y="570" width="47" height="35" as="geometry" />
        </mxCell>
        <mxCell id="avYuVaTCZwgV6i5RGNvt-12" value="" style="html=1;verticalAlign=bottom;labelBackgroundColor=none;endArrow=oval;endFill=0;endSize=8;rounded=0;exitX=0.5;exitY=1;exitDx=0;exitDy=0;entryX=0.5;entryY=0;entryDx=0;entryDy=0;" parent="avYuVaTCZwgV6i5RGNvt-1" source="avYuVaTCZwgV6i5RGNvt-2" target="avYuVaTCZwgV6i5RGNvt-11" edge="1">
          <mxGeometry width="160" relative="1" as="geometry">
            <mxPoint x="498" y="555" as="sourcePoint" />
            <mxPoint x="425" y="565" as="targetPoint" />
          </mxGeometry>
        </mxCell>
        <mxCell id="avYuVaTCZwgV6i5RGNvt-13" value="(1, N)" style="text;html=1;align=center;verticalAlign=middle;whiteSpace=wrap;rounded=0;labelBackgroundColor=default;" parent="avYuVaTCZwgV6i5RGNvt-1" vertex="1">
          <mxGeometry x="507" y="430" width="40" height="20" as="geometry" />
        </mxCell>
        <mxCell id="avYuVaTCZwgV6i5RGNvt-14" value="COPIA" style="rounded=0;whiteSpace=wrap;html=1;" parent="avYuVaTCZwgV6i5RGNvt-1" vertex="1">
          <mxGeometry x="777.25" y="500" width="80" height="40" as="geometry" />
        </mxCell>
        <mxCell id="avYuVaTCZwgV6i5RGNvt-15" value="id" style="text;html=1;align=center;verticalAlign=middle;whiteSpace=wrap;rounded=0;" parent="avYuVaTCZwgV6i5RGNvt-1" vertex="1">
          <mxGeometry x="737.25" y="435" width="30" height="30" as="geometry" />
        </mxCell>
        <mxCell id="avYuVaTCZwgV6i5RGNvt-16" value="" style="endArrow=none;html=1;rounded=0;align=center;verticalAlign=top;endFill=0;labelBackgroundColor=none;endSize=6;startArrow=oval;startFill=1;entryX=0.25;entryY=0;entryDx=0;entryDy=0;exitX=1;exitY=1;exitDx=0;exitDy=0;" parent="avYuVaTCZwgV6i5RGNvt-1" source="avYuVaTCZwgV6i5RGNvt-15" target="avYuVaTCZwgV6i5RGNvt-14" edge="1">
          <mxGeometry relative="1" as="geometry">
            <mxPoint x="1010.41" y="375" as="sourcePoint" />
            <mxPoint x="1170.4099999999999" y="375" as="targetPoint" />
          </mxGeometry>
        </mxCell>
        <mxCell id="avYuVaTCZwgV6i5RGNvt-17" value="" style="html=1;verticalAlign=bottom;labelBackgroundColor=none;endArrow=oval;endFill=0;endSize=8;rounded=0;entryX=0;entryY=0.5;entryDx=0;entryDy=0;exitX=1;exitY=0.5;exitDx=0;exitDy=0;" parent="avYuVaTCZwgV6i5RGNvt-1" source="jIEIiENOCSdRkcauAkzY-15" target="avYuVaTCZwgV6i5RGNvt-18" edge="1">
          <mxGeometry width="160" relative="1" as="geometry">
            <mxPoint x="877.25" y="560" as="sourcePoint" />
            <mxPoint x="800.41" y="605" as="targetPoint" />
          </mxGeometry>
        </mxCell>
        <mxCell id="avYuVaTCZwgV6i5RGNvt-18" value="è disponibile" style="text;html=1;align=center;verticalAlign=middle;whiteSpace=wrap;rounded=0;" parent="avYuVaTCZwgV6i5RGNvt-1" vertex="1">
          <mxGeometry x="1028.75" y="547.5" width="80" height="25" as="geometry" />
        </mxCell>
        <mxCell id="avYuVaTCZwgV6i5RGNvt-19" value="Copiato" style="shape=rhombus;perimeter=rhombusPerimeter;whiteSpace=wrap;html=1;align=center;" parent="avYuVaTCZwgV6i5RGNvt-1" vertex="1">
          <mxGeometry x="644" y="500" width="63.25" height="40" as="geometry" />
        </mxCell>
        <mxCell id="avYuVaTCZwgV6i5RGNvt-20" value="" style="endArrow=none;html=1;rounded=0;entryX=0;entryY=0.5;entryDx=0;entryDy=0;exitX=1;exitY=0.5;exitDx=0;exitDy=0;" parent="avYuVaTCZwgV6i5RGNvt-1" source="avYuVaTCZwgV6i5RGNvt-2" target="avYuVaTCZwgV6i5RGNvt-19" edge="1">
          <mxGeometry width="50" height="50" relative="1" as="geometry">
            <mxPoint x="691.25" y="625" as="sourcePoint" />
            <mxPoint x="741.25" y="575" as="targetPoint" />
          </mxGeometry>
        </mxCell>
        <mxCell id="avYuVaTCZwgV6i5RGNvt-21" value="" style="endArrow=none;html=1;rounded=0;entryX=0;entryY=0.5;entryDx=0;entryDy=0;exitX=1;exitY=0.5;exitDx=0;exitDy=0;" parent="avYuVaTCZwgV6i5RGNvt-1" source="avYuVaTCZwgV6i5RGNvt-19" target="avYuVaTCZwgV6i5RGNvt-14" edge="1">
          <mxGeometry width="50" height="50" relative="1" as="geometry">
            <mxPoint x="568.25" y="515" as="sourcePoint" />
            <mxPoint x="611.25" y="515" as="targetPoint" />
          </mxGeometry>
        </mxCell>
        <mxCell id="avYuVaTCZwgV6i5RGNvt-22" value="(1, 1)" style="text;html=1;align=center;verticalAlign=middle;whiteSpace=wrap;rounded=0;" parent="avYuVaTCZwgV6i5RGNvt-1" vertex="1">
          <mxGeometry x="697.5" y="525" width="40" height="20" as="geometry" />
        </mxCell>
        <mxCell id="avYuVaTCZwgV6i5RGNvt-23" value="(1, N)" style="text;html=1;align=center;verticalAlign=middle;whiteSpace=wrap;rounded=0;" parent="avYuVaTCZwgV6i5RGNvt-1" vertex="1">
          <mxGeometry x="612.5" y="525" width="40" height="20" as="geometry" />
        </mxCell>
        <mxCell id="avYuVaTCZwgV6i5RGNvt-24" value="AUTORE" style="rounded=0;whiteSpace=wrap;html=1;" parent="avYuVaTCZwgV6i5RGNvt-1" vertex="1">
          <mxGeometry x="518" y="300" width="80" height="40" as="geometry" />
        </mxCell>
        <mxCell id="avYuVaTCZwgV6i5RGNvt-25" value="" style="html=1;verticalAlign=bottom;labelBackgroundColor=none;endArrow=oval;endFill=0;endSize=8;rounded=0;exitX=1;exitY=0.5;exitDx=0;exitDy=0;" parent="avYuVaTCZwgV6i5RGNvt-1" source="avYuVaTCZwgV6i5RGNvt-24" target="avYuVaTCZwgV6i5RGNvt-26" edge="1">
          <mxGeometry width="160" relative="1" as="geometry">
            <mxPoint x="727.25" y="196.25" as="sourcePoint" />
            <mxPoint x="627.25" y="296.25" as="targetPoint" />
          </mxGeometry>
        </mxCell>
        <mxCell id="avYuVaTCZwgV6i5RGNvt-26" value="nome" style="text;html=1;align=center;verticalAlign=middle;whiteSpace=wrap;rounded=0;" parent="avYuVaTCZwgV6i5RGNvt-1" vertex="1">
          <mxGeometry x="627.25" y="311.25" width="50" height="20" as="geometry" />
        </mxCell>
        <mxCell id="avYuVaTCZwgV6i5RGNvt-27" value="" style="html=1;verticalAlign=bottom;labelBackgroundColor=none;endArrow=oval;endFill=0;endSize=8;rounded=0;exitX=1;exitY=0.25;exitDx=0;exitDy=0;entryX=0;entryY=0.75;entryDx=0;entryDy=0;" parent="avYuVaTCZwgV6i5RGNvt-1" source="avYuVaTCZwgV6i5RGNvt-24" target="avYuVaTCZwgV6i5RGNvt-28" edge="1">
          <mxGeometry width="160" relative="1" as="geometry">
            <mxPoint x="597.25" y="391.25" as="sourcePoint" />
            <mxPoint x="620" y="280" as="targetPoint" />
          </mxGeometry>
        </mxCell>
        <mxCell id="avYuVaTCZwgV6i5RGNvt-28" value="data di nascita" style="text;html=1;align=center;verticalAlign=middle;whiteSpace=wrap;rounded=0;" parent="avYuVaTCZwgV6i5RGNvt-1" vertex="1">
          <mxGeometry x="621.25" y="278.75" width="92.75" height="26.25" as="geometry" />
        </mxCell>
        <mxCell id="avYuVaTCZwgV6i5RGNvt-29" value="" style="html=1;verticalAlign=bottom;labelBackgroundColor=none;endArrow=oval;endFill=0;endSize=8;rounded=0;exitX=0;exitY=0.5;exitDx=0;exitDy=0;entryX=1;entryY=0.5;entryDx=0;entryDy=0;" parent="avYuVaTCZwgV6i5RGNvt-1" source="avYuVaTCZwgV6i5RGNvt-24" target="avYuVaTCZwgV6i5RGNvt-30" edge="1">
          <mxGeometry width="160" relative="1" as="geometry">
            <mxPoint x="457.25" y="236.25" as="sourcePoint" />
            <mxPoint x="527.25" y="266.25" as="targetPoint" />
            <Array as="points" />
          </mxGeometry>
        </mxCell>
        <mxCell id="avYuVaTCZwgV6i5RGNvt-30" value="biografia" style="text;html=1;align=center;verticalAlign=middle;whiteSpace=wrap;rounded=0;" parent="avYuVaTCZwgV6i5RGNvt-1" vertex="1">
          <mxGeometry x="414" y="305" width="60" height="30" as="geometry" />
        </mxCell>
        <mxCell id="avYuVaTCZwgV6i5RGNvt-31" value="data di morte" style="text;html=1;align=center;verticalAlign=middle;whiteSpace=wrap;rounded=0;fontStyle=0" parent="avYuVaTCZwgV6i5RGNvt-1" vertex="1">
          <mxGeometry x="424.5" y="340" width="53.5" height="35" as="geometry" />
        </mxCell>
        <mxCell id="avYuVaTCZwgV6i5RGNvt-32" value="" style="html=1;verticalAlign=bottom;labelBackgroundColor=none;endArrow=oval;endFill=0;endSize=8;rounded=0;entryX=1;entryY=0.5;entryDx=0;entryDy=0;exitX=0;exitY=0.75;exitDx=0;exitDy=0;" parent="avYuVaTCZwgV6i5RGNvt-1" source="avYuVaTCZwgV6i5RGNvt-24" target="avYuVaTCZwgV6i5RGNvt-31" edge="1">
          <mxGeometry width="160" relative="1" as="geometry">
            <mxPoint x="507" y="310" as="sourcePoint" />
            <mxPoint x="547.25" y="366.25" as="targetPoint" />
          </mxGeometry>
        </mxCell>
        <mxCell id="YLiIVCOc2Myp0IGPrDRY-21" value="(0, 1)" style="edgeLabel;html=1;align=center;verticalAlign=middle;resizable=0;points=[];" vertex="1" connectable="0" parent="avYuVaTCZwgV6i5RGNvt-32">
          <mxGeometry x="0.1306" y="-1" relative="1" as="geometry">
            <mxPoint as="offset" />
          </mxGeometry>
        </mxCell>
        <mxCell id="avYuVaTCZwgV6i5RGNvt-33" value="id" style="text;html=1;align=center;verticalAlign=middle;whiteSpace=wrap;rounded=0;" parent="avYuVaTCZwgV6i5RGNvt-1" vertex="1">
          <mxGeometry x="452" y="260" width="26" height="30" as="geometry" />
        </mxCell>
        <mxCell id="avYuVaTCZwgV6i5RGNvt-34" value="" style="endArrow=none;html=1;rounded=0;align=center;verticalAlign=top;endFill=0;labelBackgroundColor=none;endSize=6;startArrow=oval;startFill=1;entryX=0;entryY=0.25;entryDx=0;entryDy=0;exitX=1;exitY=0.75;exitDx=0;exitDy=0;" parent="avYuVaTCZwgV6i5RGNvt-1" source="avYuVaTCZwgV6i5RGNvt-33" target="avYuVaTCZwgV6i5RGNvt-24" edge="1">
          <mxGeometry relative="1" as="geometry">
            <mxPoint x="584.25" y="56.25" as="sourcePoint" />
            <mxPoint x="564.25" y="76.25" as="targetPoint" />
          </mxGeometry>
        </mxCell>
        <mxCell id="avYuVaTCZwgV6i5RGNvt-35" value="" style="html=1;verticalAlign=bottom;labelBackgroundColor=none;endArrow=oval;endFill=0;endSize=8;rounded=0;exitX=1;exitY=0.75;exitDx=0;exitDy=0;" parent="avYuVaTCZwgV6i5RGNvt-1" source="avYuVaTCZwgV6i5RGNvt-24" target="avYuVaTCZwgV6i5RGNvt-36" edge="1">
          <mxGeometry width="160" relative="1" as="geometry">
            <mxPoint x="582.25" y="346.25" as="sourcePoint" />
            <mxPoint x="632.25" y="326.25" as="targetPoint" />
          </mxGeometry>
        </mxCell>
        <mxCell id="avYuVaTCZwgV6i5RGNvt-36" value="cognome" style="text;html=1;align=center;verticalAlign=middle;whiteSpace=wrap;rounded=0;" parent="avYuVaTCZwgV6i5RGNvt-1" vertex="1">
          <mxGeometry x="612.5" y="340" width="65" height="20" as="geometry" />
        </mxCell>
        <mxCell id="avYuVaTCZwgV6i5RGNvt-38" value="(1, N)" style="text;html=1;align=center;verticalAlign=middle;whiteSpace=wrap;rounded=0;labelBackgroundColor=default;" parent="avYuVaTCZwgV6i5RGNvt-1" vertex="1">
          <mxGeometry x="507" y="380" width="40" height="20" as="geometry" />
        </mxCell>
        <mxCell id="avYuVaTCZwgV6i5RGNvt-39" value="Scritto" style="shape=rhombus;perimeter=rhombusPerimeter;whiteSpace=wrap;html=1;align=center;" parent="avYuVaTCZwgV6i5RGNvt-1" vertex="1">
          <mxGeometry x="528" y="400" width="60" height="40" as="geometry" />
        </mxCell>
        <mxCell id="avYuVaTCZwgV6i5RGNvt-40" value="" style="endArrow=none;html=1;rounded=0;entryX=0.5;entryY=1;entryDx=0;entryDy=0;exitX=0.5;exitY=0;exitDx=0;exitDy=0;" parent="avYuVaTCZwgV6i5RGNvt-1" source="avYuVaTCZwgV6i5RGNvt-2" target="avYuVaTCZwgV6i5RGNvt-39" edge="1">
          <mxGeometry width="50" height="50" relative="1" as="geometry">
            <mxPoint x="588" y="515" as="sourcePoint" />
            <mxPoint x="631" y="515" as="targetPoint" />
          </mxGeometry>
        </mxCell>
        <mxCell id="avYuVaTCZwgV6i5RGNvt-41" value="" style="endArrow=none;html=1;rounded=0;entryX=0.5;entryY=1;entryDx=0;entryDy=0;exitX=0.5;exitY=0;exitDx=0;exitDy=0;" parent="avYuVaTCZwgV6i5RGNvt-1" source="avYuVaTCZwgV6i5RGNvt-39" target="avYuVaTCZwgV6i5RGNvt-24" edge="1">
          <mxGeometry width="50" height="50" relative="1" as="geometry">
            <mxPoint x="538" y="395" as="sourcePoint" />
            <mxPoint x="538" y="345" as="targetPoint" />
          </mxGeometry>
        </mxCell>
        <mxCell id="avYuVaTCZwgV6i5RGNvt-42" value="SEDE" style="rounded=0;whiteSpace=wrap;html=1;" parent="avYuVaTCZwgV6i5RGNvt-1" vertex="1">
          <mxGeometry x="777.25" y="300" width="80" height="40" as="geometry" />
        </mxCell>
        <mxCell id="avYuVaTCZwgV6i5RGNvt-43" value="id" style="text;html=1;align=center;verticalAlign=middle;whiteSpace=wrap;rounded=0;" parent="avYuVaTCZwgV6i5RGNvt-1" vertex="1">
          <mxGeometry x="887.25" y="305" width="20" height="30" as="geometry" />
        </mxCell>
        <mxCell id="avYuVaTCZwgV6i5RGNvt-44" value="" style="endArrow=none;html=1;rounded=0;align=center;verticalAlign=top;endFill=0;labelBackgroundColor=none;endSize=6;startArrow=oval;startFill=1;entryX=1;entryY=0.5;entryDx=0;entryDy=0;exitX=0;exitY=0.5;exitDx=0;exitDy=0;" parent="avYuVaTCZwgV6i5RGNvt-1" source="avYuVaTCZwgV6i5RGNvt-43" target="avYuVaTCZwgV6i5RGNvt-42" edge="1">
          <mxGeometry relative="1" as="geometry">
            <mxPoint x="1004" y="200" as="sourcePoint" />
            <mxPoint x="1164" y="200" as="targetPoint" />
          </mxGeometry>
        </mxCell>
        <mxCell id="avYuVaTCZwgV6i5RGNvt-47" value="" style="html=1;verticalAlign=bottom;labelBackgroundColor=none;endArrow=oval;endFill=0;endSize=8;rounded=0;exitX=0;exitY=0.5;exitDx=0;exitDy=0;entryX=1;entryY=0.5;entryDx=0;entryDy=0;" parent="avYuVaTCZwgV6i5RGNvt-1" source="avYuVaTCZwgV6i5RGNvt-42" target="avYuVaTCZwgV6i5RGNvt-48" edge="1">
          <mxGeometry width="160" relative="1" as="geometry">
            <mxPoint x="734" y="240" as="sourcePoint" />
            <mxPoint x="804" y="270" as="targetPoint" />
            <Array as="points" />
          </mxGeometry>
        </mxCell>
        <mxCell id="avYuVaTCZwgV6i5RGNvt-48" value="indirizzo" style="text;html=1;align=center;verticalAlign=middle;whiteSpace=wrap;rounded=0;spacingBottom=0;" parent="avYuVaTCZwgV6i5RGNvt-1" vertex="1">
          <mxGeometry x="694.25" y="306.88" width="60" height="26.25" as="geometry" />
        </mxCell>
        <mxCell id="avYuVaTCZwgV6i5RGNvt-49" value="" style="endArrow=none;html=1;rounded=0;exitX=0.75;exitY=1;exitDx=0;exitDy=0;entryX=0.5;entryY=0;entryDx=0;entryDy=0;" parent="avYuVaTCZwgV6i5RGNvt-1" source="avYuVaTCZwgV6i5RGNvt-48" target="avYuVaTCZwgV6i5RGNvt-51" edge="1">
          <mxGeometry width="50" height="50" relative="1" as="geometry">
            <mxPoint x="718" y="325" as="sourcePoint" />
            <mxPoint x="748" y="295" as="targetPoint" />
          </mxGeometry>
        </mxCell>
        <mxCell id="avYuVaTCZwgV6i5RGNvt-50" value="" style="endArrow=none;html=1;rounded=0;exitX=0.25;exitY=1;exitDx=0;exitDy=0;entryX=0.5;entryY=0;entryDx=0;entryDy=0;" parent="avYuVaTCZwgV6i5RGNvt-1" source="avYuVaTCZwgV6i5RGNvt-48" target="avYuVaTCZwgV6i5RGNvt-52" edge="1">
          <mxGeometry width="50" height="50" relative="1" as="geometry">
            <mxPoint x="731" y="321" as="sourcePoint" />
            <mxPoint x="648" y="295" as="targetPoint" />
          </mxGeometry>
        </mxCell>
        <mxCell id="avYuVaTCZwgV6i5RGNvt-51" value="via" style="text;html=1;align=center;verticalAlign=middle;whiteSpace=wrap;rounded=0;" parent="avYuVaTCZwgV6i5RGNvt-1" vertex="1">
          <mxGeometry x="727.25" y="350" width="40" height="30" as="geometry" />
        </mxCell>
        <mxCell id="avYuVaTCZwgV6i5RGNvt-52" value="città" style="text;html=1;align=center;verticalAlign=middle;whiteSpace=wrap;rounded=0;" parent="avYuVaTCZwgV6i5RGNvt-1" vertex="1">
          <mxGeometry x="679.5" y="350" width="40" height="30" as="geometry" />
        </mxCell>
        <mxCell id="avYuVaTCZwgV6i5RGNvt-57" value="(1, 1)" style="text;html=1;align=center;verticalAlign=middle;whiteSpace=wrap;rounded=0;" parent="avYuVaTCZwgV6i5RGNvt-1" vertex="1">
          <mxGeometry x="777.25" y="430" width="40" height="30" as="geometry" />
        </mxCell>
        <mxCell id="avYuVaTCZwgV6i5RGNvt-58" value="(1, N)" style="text;html=1;align=center;verticalAlign=middle;whiteSpace=wrap;rounded=0;" parent="avYuVaTCZwgV6i5RGNvt-1" vertex="1">
          <mxGeometry x="774" y="375" width="40" height="30" as="geometry" />
        </mxCell>
        <mxCell id="avYuVaTCZwgV6i5RGNvt-59" value="Gestione" style="shape=rhombus;perimeter=rhombusPerimeter;whiteSpace=wrap;html=1;align=center;" parent="avYuVaTCZwgV6i5RGNvt-1" vertex="1">
          <mxGeometry x="777.25" y="400" width="80" height="40" as="geometry" />
        </mxCell>
        <mxCell id="avYuVaTCZwgV6i5RGNvt-60" value="" style="endArrow=none;html=1;rounded=0;exitX=0.5;exitY=0;exitDx=0;exitDy=0;entryX=0.5;entryY=1;entryDx=0;entryDy=0;" parent="avYuVaTCZwgV6i5RGNvt-1" source="avYuVaTCZwgV6i5RGNvt-59" target="avYuVaTCZwgV6i5RGNvt-42" edge="1">
          <mxGeometry width="50" height="50" relative="1" as="geometry">
            <mxPoint x="815.4100000000001" y="394.5" as="sourcePoint" />
            <mxPoint x="834" y="365" as="targetPoint" />
          </mxGeometry>
        </mxCell>
        <mxCell id="avYuVaTCZwgV6i5RGNvt-61" value="" style="endArrow=none;html=1;rounded=0;entryX=0.5;entryY=1;entryDx=0;entryDy=0;exitX=0.5;exitY=0;exitDx=0;exitDy=0;" parent="avYuVaTCZwgV6i5RGNvt-1" source="avYuVaTCZwgV6i5RGNvt-14" target="avYuVaTCZwgV6i5RGNvt-59" edge="1">
          <mxGeometry width="50" height="50" relative="1" as="geometry">
            <mxPoint x="804" y="465" as="sourcePoint" />
            <mxPoint x="908.4100000000001" y="514.5" as="targetPoint" />
          </mxGeometry>
        </mxCell>
        <mxCell id="avYuVaTCZwgV6i5RGNvt-62" value="PRESTITO" style="rounded=0;whiteSpace=wrap;html=1;" parent="avYuVaTCZwgV6i5RGNvt-1" vertex="1">
          <mxGeometry x="777.25" y="660" width="80" height="40" as="geometry" />
        </mxCell>
        <mxCell id="avYuVaTCZwgV6i5RGNvt-63" value="" style="html=1;verticalAlign=bottom;labelBackgroundColor=none;endArrow=oval;endFill=0;endSize=8;rounded=0;exitX=0.25;exitY=0;exitDx=0;exitDy=0;entryX=0.75;entryY=1;entryDx=0;entryDy=0;" parent="avYuVaTCZwgV6i5RGNvt-1" source="avYuVaTCZwgV6i5RGNvt-62" target="avYuVaTCZwgV6i5RGNvt-64" edge="1">
          <mxGeometry width="160" relative="1" as="geometry">
            <mxPoint x="674" y="697.5" as="sourcePoint" />
            <mxPoint x="754" y="652.5" as="targetPoint" />
          </mxGeometry>
        </mxCell>
        <mxCell id="avYuVaTCZwgV6i5RGNvt-64" value="data prestito" style="text;html=1;align=center;verticalAlign=middle;whiteSpace=wrap;rounded=0;" parent="avYuVaTCZwgV6i5RGNvt-1" vertex="1">
          <mxGeometry x="707" y="605" width="77" height="25" as="geometry" />
        </mxCell>
        <mxCell id="avYuVaTCZwgV6i5RGNvt-65" value="" style="endArrow=none;html=1;rounded=0;align=center;verticalAlign=top;endFill=0;labelBackgroundColor=none;endSize=6;startArrow=oval;startFill=1;" parent="avYuVaTCZwgV6i5RGNvt-1" edge="1">
          <mxGeometry relative="1" as="geometry">
            <mxPoint x="767.25" y="650" as="sourcePoint" />
            <mxPoint x="867.25" y="700" as="targetPoint" />
            <Array as="points">
              <mxPoint x="867.25" y="650" />
            </Array>
          </mxGeometry>
        </mxCell>
        <mxCell id="avYuVaTCZwgV6i5RGNvt-66" value="LETTORE" style="rounded=0;whiteSpace=wrap;html=1;" parent="avYuVaTCZwgV6i5RGNvt-1" vertex="1">
          <mxGeometry x="1057.25" y="660" width="80" height="40" as="geometry" />
        </mxCell>
        <mxCell id="avYuVaTCZwgV6i5RGNvt-67" value="" style="html=1;verticalAlign=bottom;labelBackgroundColor=none;endArrow=oval;endFill=0;endSize=8;rounded=0;exitX=0.75;exitY=1;exitDx=0;exitDy=0;entryX=0.5;entryY=0;entryDx=0;entryDy=0;" parent="avYuVaTCZwgV6i5RGNvt-1" source="avYuVaTCZwgV6i5RGNvt-66" target="avYuVaTCZwgV6i5RGNvt-68" edge="1">
          <mxGeometry width="160" relative="1" as="geometry">
            <mxPoint x="1302.25" y="552.5" as="sourcePoint" />
            <mxPoint x="1202.25" y="652.5" as="targetPoint" />
          </mxGeometry>
        </mxCell>
        <mxCell id="avYuVaTCZwgV6i5RGNvt-68" value="nome" style="text;html=1;align=center;verticalAlign=middle;whiteSpace=wrap;rounded=0;" parent="avYuVaTCZwgV6i5RGNvt-1" vertex="1">
          <mxGeometry x="1118" y="760" width="50" height="20" as="geometry" />
        </mxCell>
        <mxCell id="avYuVaTCZwgV6i5RGNvt-69" value="" style="html=1;verticalAlign=bottom;labelBackgroundColor=none;endArrow=oval;endFill=0;endSize=8;rounded=0;exitX=0.25;exitY=0;exitDx=0;exitDy=0;entryX=0.75;entryY=1;entryDx=0;entryDy=0;" parent="avYuVaTCZwgV6i5RGNvt-1" source="avYuVaTCZwgV6i5RGNvt-66" target="avYuVaTCZwgV6i5RGNvt-70" edge="1">
          <mxGeometry width="160" relative="1" as="geometry">
            <mxPoint x="1172.25" y="747.5" as="sourcePoint" />
            <mxPoint x="1157.25" y="727.5" as="targetPoint" />
          </mxGeometry>
        </mxCell>
        <mxCell id="avYuVaTCZwgV6i5RGNvt-70" value="categoria" style="text;html=1;align=left;verticalAlign=middle;whiteSpace=wrap;rounded=0;" parent="avYuVaTCZwgV6i5RGNvt-1" vertex="1">
          <mxGeometry x="1016" y="600" width="60" height="30" as="geometry" />
        </mxCell>
        <mxCell id="avYuVaTCZwgV6i5RGNvt-71" value="" style="html=1;verticalAlign=bottom;labelBackgroundColor=none;endArrow=oval;endFill=0;endSize=8;rounded=0;exitX=0.5;exitY=0;exitDx=0;exitDy=0;entryX=0.5;entryY=1;entryDx=0;entryDy=0;" parent="avYuVaTCZwgV6i5RGNvt-1" source="avYuVaTCZwgV6i5RGNvt-66" target="avYuVaTCZwgV6i5RGNvt-72" edge="1">
          <mxGeometry width="160" relative="1" as="geometry">
            <mxPoint x="1032.25" y="592.5" as="sourcePoint" />
            <mxPoint x="1102.25" y="622.5" as="targetPoint" />
            <Array as="points" />
          </mxGeometry>
        </mxCell>
        <mxCell id="avYuVaTCZwgV6i5RGNvt-72" value="email" style="text;html=1;align=center;verticalAlign=middle;whiteSpace=wrap;rounded=0;" parent="avYuVaTCZwgV6i5RGNvt-1" vertex="1">
          <mxGeometry x="1077.25" y="590" width="40" height="30" as="geometry" />
        </mxCell>
        <mxCell id="avYuVaTCZwgV6i5RGNvt-73" value="" style="html=1;verticalAlign=bottom;labelBackgroundColor=none;endArrow=oval;endFill=0;endSize=8;rounded=0;exitX=0.75;exitY=0;exitDx=0;exitDy=0;entryX=0.25;entryY=1;entryDx=0;entryDy=0;" parent="avYuVaTCZwgV6i5RGNvt-1" source="avYuVaTCZwgV6i5RGNvt-66" target="avYuVaTCZwgV6i5RGNvt-75" edge="1">
          <mxGeometry width="160" relative="1" as="geometry">
            <mxPoint x="972.25" y="697.5" as="sourcePoint" />
            <mxPoint x="1052.25" y="652.5" as="targetPoint" />
          </mxGeometry>
        </mxCell>
        <mxCell id="avYuVaTCZwgV6i5RGNvt-74" value="n° volumi in ritardo" style="text;html=1;align=center;verticalAlign=middle;whiteSpace=wrap;rounded=0;fontStyle=0" parent="avYuVaTCZwgV6i5RGNvt-1" vertex="1">
          <mxGeometry x="978.75" y="725" width="60" height="35" as="geometry" />
        </mxCell>
        <mxCell id="avYuVaTCZwgV6i5RGNvt-75" value="password" style="text;html=1;align=center;verticalAlign=middle;whiteSpace=wrap;rounded=0;" parent="avYuVaTCZwgV6i5RGNvt-1" vertex="1">
          <mxGeometry x="1117.25" y="605" width="70" height="25" as="geometry" />
        </mxCell>
        <mxCell id="avYuVaTCZwgV6i5RGNvt-76" value="" style="html=1;verticalAlign=bottom;labelBackgroundColor=none;endArrow=oval;endFill=0;endSize=8;rounded=0;exitX=0;exitY=0.75;exitDx=0;exitDy=0;entryX=0.75;entryY=0;entryDx=0;entryDy=0;" parent="avYuVaTCZwgV6i5RGNvt-1" source="avYuVaTCZwgV6i5RGNvt-66" target="avYuVaTCZwgV6i5RGNvt-74" edge="1">
          <mxGeometry width="160" relative="1" as="geometry">
            <mxPoint x="1072.25" y="732.5" as="sourcePoint" />
            <mxPoint x="1122.25" y="722.5" as="targetPoint" />
          </mxGeometry>
        </mxCell>
        <mxCell id="avYuVaTCZwgV6i5RGNvt-77" value="c.f." style="text;html=1;align=center;verticalAlign=middle;whiteSpace=wrap;rounded=0;" parent="avYuVaTCZwgV6i5RGNvt-1" vertex="1">
          <mxGeometry x="1008.75" y="630" width="30" height="30" as="geometry" />
        </mxCell>
        <mxCell id="avYuVaTCZwgV6i5RGNvt-78" value="" style="endArrow=none;html=1;rounded=0;align=center;verticalAlign=top;endFill=0;labelBackgroundColor=none;endSize=6;startArrow=oval;startFill=1;entryX=0;entryY=0.25;entryDx=0;entryDy=0;exitX=1;exitY=0.75;exitDx=0;exitDy=0;" parent="avYuVaTCZwgV6i5RGNvt-1" source="avYuVaTCZwgV6i5RGNvt-77" target="avYuVaTCZwgV6i5RGNvt-66" edge="1">
          <mxGeometry relative="1" as="geometry">
            <mxPoint x="1159.25" y="412.5" as="sourcePoint" />
            <mxPoint x="1139.25" y="432.5" as="targetPoint" />
          </mxGeometry>
        </mxCell>
        <mxCell id="avYuVaTCZwgV6i5RGNvt-79" value="" style="html=1;verticalAlign=bottom;labelBackgroundColor=none;endArrow=oval;endFill=0;endSize=8;rounded=0;exitX=0.5;exitY=1;exitDx=0;exitDy=0;entryX=0.5;entryY=0;entryDx=0;entryDy=0;" parent="avYuVaTCZwgV6i5RGNvt-1" source="avYuVaTCZwgV6i5RGNvt-66" target="avYuVaTCZwgV6i5RGNvt-80" edge="1">
          <mxGeometry width="160" relative="1" as="geometry">
            <mxPoint x="1157.25" y="702.5" as="sourcePoint" />
            <mxPoint x="1207.25" y="682.5" as="targetPoint" />
          </mxGeometry>
        </mxCell>
        <mxCell id="avYuVaTCZwgV6i5RGNvt-80" value="cognome" style="text;html=1;align=center;verticalAlign=middle;whiteSpace=wrap;rounded=0;" parent="avYuVaTCZwgV6i5RGNvt-1" vertex="1">
          <mxGeometry x="1064.75" y="745" width="65" height="20" as="geometry" />
        </mxCell>
        <mxCell id="avYuVaTCZwgV6i5RGNvt-81" value="" style="html=1;verticalAlign=bottom;labelBackgroundColor=none;endArrow=oval;endFill=0;endSize=8;rounded=0;exitX=0.25;exitY=1;exitDx=0;exitDy=0;entryX=0.5;entryY=0;entryDx=0;entryDy=0;" parent="avYuVaTCZwgV6i5RGNvt-1" source="avYuVaTCZwgV6i5RGNvt-66" target="avYuVaTCZwgV6i5RGNvt-82" edge="1">
          <mxGeometry width="160" relative="1" as="geometry">
            <mxPoint x="1139.25" y="747.5" as="sourcePoint" />
            <mxPoint x="1168.75" y="767.25" as="targetPoint" />
          </mxGeometry>
        </mxCell>
        <mxCell id="avYuVaTCZwgV6i5RGNvt-82" value="n° libri in prestito al momento" style="text;html=1;align=center;verticalAlign=middle;whiteSpace=wrap;rounded=0;fontStyle=0" parent="avYuVaTCZwgV6i5RGNvt-1" vertex="1">
          <mxGeometry x="996.75" y="760" width="98.5" height="42" as="geometry" />
        </mxCell>
        <mxCell id="avYuVaTCZwgV6i5RGNvt-83" value="Copia Richiesta" style="shape=rhombus;perimeter=rhombusPerimeter;whiteSpace=wrap;html=1;align=center;" parent="avYuVaTCZwgV6i5RGNvt-1" vertex="1">
          <mxGeometry x="777.25" y="570" width="80" height="60" as="geometry" />
        </mxCell>
        <mxCell id="avYuVaTCZwgV6i5RGNvt-84" value="Richiedente" style="shape=rhombus;perimeter=rhombusPerimeter;whiteSpace=wrap;html=1;align=center;" parent="avYuVaTCZwgV6i5RGNvt-1" vertex="1">
          <mxGeometry x="907.25" y="650" width="100" height="60" as="geometry" />
        </mxCell>
        <mxCell id="avYuVaTCZwgV6i5RGNvt-85" value="" style="endArrow=none;html=1;rounded=0;entryX=1;entryY=0.5;entryDx=0;entryDy=0;exitX=0;exitY=0.5;exitDx=0;exitDy=0;" parent="avYuVaTCZwgV6i5RGNvt-1" source="avYuVaTCZwgV6i5RGNvt-66" target="avYuVaTCZwgV6i5RGNvt-84" edge="1">
          <mxGeometry width="50" height="50" relative="1" as="geometry">
            <mxPoint x="587.25" y="670" as="sourcePoint" />
            <mxPoint x="739.75" y="752.5" as="targetPoint" />
          </mxGeometry>
        </mxCell>
        <mxCell id="avYuVaTCZwgV6i5RGNvt-86" value="" style="endArrow=none;html=1;rounded=0;entryX=1;entryY=0.5;entryDx=0;entryDy=0;exitX=0;exitY=0.5;exitDx=0;exitDy=0;" parent="avYuVaTCZwgV6i5RGNvt-1" source="avYuVaTCZwgV6i5RGNvt-84" target="avYuVaTCZwgV6i5RGNvt-62" edge="1">
          <mxGeometry width="50" height="50" relative="1" as="geometry">
            <mxPoint x="907.25" y="650" as="sourcePoint" />
            <mxPoint x="777.5" y="682.5" as="targetPoint" />
          </mxGeometry>
        </mxCell>
        <mxCell id="avYuVaTCZwgV6i5RGNvt-87" value="(0, N)" style="text;html=1;align=center;verticalAlign=middle;whiteSpace=wrap;rounded=0;" parent="avYuVaTCZwgV6i5RGNvt-1" vertex="1">
          <mxGeometry x="826.75" y="560" width="40" height="30" as="geometry" />
        </mxCell>
        <mxCell id="avYuVaTCZwgV6i5RGNvt-88" value="(1, 1)" style="text;html=1;align=center;verticalAlign=middle;whiteSpace=wrap;rounded=0;" parent="avYuVaTCZwgV6i5RGNvt-1" vertex="1">
          <mxGeometry x="826.75" y="610" width="40" height="30" as="geometry" />
        </mxCell>
        <mxCell id="avYuVaTCZwgV6i5RGNvt-89" value="(1, 1)" style="text;html=1;align=center;verticalAlign=middle;whiteSpace=wrap;rounded=0;" parent="avYuVaTCZwgV6i5RGNvt-1" vertex="1">
          <mxGeometry x="889" y="687.5" width="40" height="30" as="geometry" />
        </mxCell>
        <mxCell id="avYuVaTCZwgV6i5RGNvt-90" value="(0, N)" style="text;html=1;align=center;verticalAlign=middle;whiteSpace=wrap;rounded=0;" parent="avYuVaTCZwgV6i5RGNvt-1" vertex="1">
          <mxGeometry x="988.75" y="682.5" width="40" height="30" as="geometry" />
        </mxCell>
        <mxCell id="avYuVaTCZwgV6i5RGNvt-91" value="" style="endArrow=none;html=1;rounded=0;entryX=0.5;entryY=0;entryDx=0;entryDy=0;exitX=0.5;exitY=1;exitDx=0;exitDy=0;" parent="avYuVaTCZwgV6i5RGNvt-1" source="avYuVaTCZwgV6i5RGNvt-14" target="avYuVaTCZwgV6i5RGNvt-83" edge="1">
          <mxGeometry width="50" height="50" relative="1" as="geometry">
            <mxPoint x="887.25" y="640" as="sourcePoint" />
            <mxPoint x="937.25" y="590" as="targetPoint" />
          </mxGeometry>
        </mxCell>
        <mxCell id="avYuVaTCZwgV6i5RGNvt-92" value="" style="endArrow=none;html=1;rounded=0;entryX=0.5;entryY=0;entryDx=0;entryDy=0;exitX=0.5;exitY=1;exitDx=0;exitDy=0;" parent="avYuVaTCZwgV6i5RGNvt-1" source="avYuVaTCZwgV6i5RGNvt-83" target="avYuVaTCZwgV6i5RGNvt-62" edge="1">
          <mxGeometry width="50" height="50" relative="1" as="geometry">
            <mxPoint x="827.25" y="540" as="sourcePoint" />
            <mxPoint x="828.25" y="590" as="targetPoint" />
          </mxGeometry>
        </mxCell>
        <mxCell id="avYuVaTCZwgV6i5RGNvt-93" value="BIBLIOTECARIO" style="rounded=0;whiteSpace=wrap;html=1;" parent="avYuVaTCZwgV6i5RGNvt-1" vertex="1">
          <mxGeometry x="1038.25" y="342.5" width="100" height="40" as="geometry" />
        </mxCell>
        <mxCell id="avYuVaTCZwgV6i5RGNvt-94" value="id" style="text;html=1;align=center;verticalAlign=middle;whiteSpace=wrap;rounded=0;" parent="avYuVaTCZwgV6i5RGNvt-1" vertex="1">
          <mxGeometry x="1118" y="290" width="20" height="30" as="geometry" />
        </mxCell>
        <mxCell id="avYuVaTCZwgV6i5RGNvt-95" value="" style="endArrow=none;html=1;rounded=0;align=center;verticalAlign=top;endFill=0;labelBackgroundColor=none;endSize=6;startArrow=oval;startFill=1;entryX=0.75;entryY=0;entryDx=0;entryDy=0;exitX=0.5;exitY=1;exitDx=0;exitDy=0;" parent="avYuVaTCZwgV6i5RGNvt-1" source="avYuVaTCZwgV6i5RGNvt-94" target="avYuVaTCZwgV6i5RGNvt-93" edge="1">
          <mxGeometry relative="1" as="geometry">
            <mxPoint x="1268" y="237.5" as="sourcePoint" />
            <mxPoint x="1428" y="237.5" as="targetPoint" />
          </mxGeometry>
        </mxCell>
        <mxCell id="avYuVaTCZwgV6i5RGNvt-96" value="" style="html=1;verticalAlign=bottom;labelBackgroundColor=none;endArrow=oval;endFill=0;endSize=8;rounded=0;exitX=0.5;exitY=0;exitDx=0;exitDy=0;" parent="avYuVaTCZwgV6i5RGNvt-1" source="avYuVaTCZwgV6i5RGNvt-93" target="avYuVaTCZwgV6i5RGNvt-97" edge="1">
          <mxGeometry width="160" relative="1" as="geometry">
            <mxPoint x="1268" y="237.5" as="sourcePoint" />
            <mxPoint x="1168" y="337.5" as="targetPoint" />
          </mxGeometry>
        </mxCell>
        <mxCell id="avYuVaTCZwgV6i5RGNvt-97" value="email" style="text;html=1;align=center;verticalAlign=middle;whiteSpace=wrap;rounded=0;" parent="avYuVaTCZwgV6i5RGNvt-1" vertex="1">
          <mxGeometry x="1066.5" y="285" width="40" height="30" as="geometry" />
        </mxCell>
        <mxCell id="avYuVaTCZwgV6i5RGNvt-98" value="" style="html=1;verticalAlign=bottom;labelBackgroundColor=none;endArrow=oval;endFill=0;endSize=8;rounded=0;exitX=0.25;exitY=0;exitDx=0;exitDy=0;" parent="avYuVaTCZwgV6i5RGNvt-1" source="avYuVaTCZwgV6i5RGNvt-93" target="avYuVaTCZwgV6i5RGNvt-99" edge="1">
          <mxGeometry width="160" relative="1" as="geometry">
            <mxPoint x="1037.25" y="336.25" as="sourcePoint" />
            <mxPoint x="1117.25" y="326.25" as="targetPoint" />
          </mxGeometry>
        </mxCell>
        <mxCell id="avYuVaTCZwgV6i5RGNvt-99" value="password" style="text;html=1;align=center;verticalAlign=middle;whiteSpace=wrap;rounded=0;" parent="avYuVaTCZwgV6i5RGNvt-1" vertex="1">
          <mxGeometry x="1007.25" y="290" width="59.25" height="30" as="geometry" />
        </mxCell>
        <mxCell id="avYuVaTCZwgV6i5RGNvt-100" value="" style="html=1;verticalAlign=bottom;labelBackgroundColor=none;endArrow=oval;endFill=0;endSize=8;rounded=0;entryX=0.25;entryY=0;entryDx=0;entryDy=0;exitX=1;exitY=0.5;exitDx=0;exitDy=0;" parent="avYuVaTCZwgV6i5RGNvt-1" source="avYuVaTCZwgV6i5RGNvt-107" target="avYuVaTCZwgV6i5RGNvt-101" edge="1">
          <mxGeometry width="160" relative="1" as="geometry">
            <mxPoint x="777.25" y="870" as="sourcePoint" />
            <mxPoint x="905" y="670" as="targetPoint" />
          </mxGeometry>
        </mxCell>
        <mxCell id="avYuVaTCZwgV6i5RGNvt-101" value="data restituzione" style="text;html=1;align=center;verticalAlign=middle;whiteSpace=wrap;rounded=0;" parent="avYuVaTCZwgV6i5RGNvt-1" vertex="1">
          <mxGeometry x="927.25" y="820" width="80" height="42.5" as="geometry" />
        </mxCell>
        <mxCell id="avYuVaTCZwgV6i5RGNvt-102" value="" style="html=1;verticalAlign=bottom;labelBackgroundColor=none;endArrow=oval;endFill=0;endSize=8;rounded=0;exitX=0.75;exitY=1;exitDx=0;exitDy=0;" parent="avYuVaTCZwgV6i5RGNvt-1" source="avYuVaTCZwgV6i5RGNvt-106" target="avYuVaTCZwgV6i5RGNvt-103" edge="1">
          <mxGeometry width="160" relative="1" as="geometry">
            <mxPoint x="875" y="765" as="sourcePoint" />
            <mxPoint x="922" y="740" as="targetPoint" />
          </mxGeometry>
        </mxCell>
        <mxCell id="avYuVaTCZwgV6i5RGNvt-103" value="durata massima prestito" style="text;html=1;align=left;verticalAlign=middle;whiteSpace=wrap;rounded=0;" parent="avYuVaTCZwgV6i5RGNvt-1" vertex="1">
          <mxGeometry x="784" y="827.5" width="90" height="40" as="geometry" />
        </mxCell>
        <mxCell id="avYuVaTCZwgV6i5RGNvt-104" value="scadenza prestito" style="text;html=1;align=center;verticalAlign=middle;whiteSpace=wrap;rounded=0;fontStyle=0" parent="avYuVaTCZwgV6i5RGNvt-1" vertex="1">
          <mxGeometry x="627.25" y="828.75" width="110" height="25" as="geometry" />
        </mxCell>
        <mxCell id="avYuVaTCZwgV6i5RGNvt-105" value="" style="html=1;verticalAlign=bottom;labelBackgroundColor=none;endArrow=oval;endFill=0;endSize=8;rounded=0;entryX=0.75;entryY=0;entryDx=0;entryDy=0;exitX=0.25;exitY=1;exitDx=0;exitDy=0;" parent="avYuVaTCZwgV6i5RGNvt-1" source="avYuVaTCZwgV6i5RGNvt-106" target="avYuVaTCZwgV6i5RGNvt-104" edge="1">
          <mxGeometry width="160" relative="1" as="geometry">
            <mxPoint x="778" y="702.5" as="sourcePoint" />
            <mxPoint x="825" y="740" as="targetPoint" />
          </mxGeometry>
        </mxCell>
        <mxCell id="avYuVaTCZwgV6i5RGNvt-106" value="PRESTITO CORRENTE" style="rounded=0;whiteSpace=wrap;html=1;" parent="avYuVaTCZwgV6i5RGNvt-1" vertex="1">
          <mxGeometry x="717.25" y="760" width="80" height="40" as="geometry" />
        </mxCell>
        <mxCell id="avYuVaTCZwgV6i5RGNvt-107" value="PRESTITO PASSATO" style="rounded=0;whiteSpace=wrap;html=1;" parent="avYuVaTCZwgV6i5RGNvt-1" vertex="1">
          <mxGeometry x="836.75" y="760" width="80" height="40" as="geometry" />
        </mxCell>
        <mxCell id="avYuVaTCZwgV6i5RGNvt-108" value="" style="shape=flexArrow;endArrow=classic;html=1;rounded=0;endWidth=8.8;endSize=3.064;entryX=0.5;entryY=1;entryDx=0;entryDy=0;" parent="avYuVaTCZwgV6i5RGNvt-1" target="avYuVaTCZwgV6i5RGNvt-62" edge="1">
          <mxGeometry width="50" height="50" relative="1" as="geometry">
            <mxPoint x="817.25" y="740" as="sourcePoint" />
            <mxPoint x="818.1500000000001" y="722.5" as="targetPoint" />
          </mxGeometry>
        </mxCell>
        <mxCell id="avYuVaTCZwgV6i5RGNvt-109" value="" style="endArrow=none;html=1;rounded=0;" parent="avYuVaTCZwgV6i5RGNvt-1" edge="1">
          <mxGeometry width="50" height="50" relative="1" as="geometry">
            <mxPoint x="757.25" y="740" as="sourcePoint" />
            <mxPoint x="877.25" y="740" as="targetPoint" />
          </mxGeometry>
        </mxCell>
        <mxCell id="avYuVaTCZwgV6i5RGNvt-110" value="" style="endArrow=none;html=1;rounded=0;exitX=0.5;exitY=0;exitDx=0;exitDy=0;" parent="avYuVaTCZwgV6i5RGNvt-1" source="avYuVaTCZwgV6i5RGNvt-106" edge="1">
          <mxGeometry width="50" height="50" relative="1" as="geometry">
            <mxPoint x="807.25" y="930" as="sourcePoint" />
            <mxPoint x="757.25" y="740" as="targetPoint" />
          </mxGeometry>
        </mxCell>
        <mxCell id="avYuVaTCZwgV6i5RGNvt-111" value="" style="endArrow=none;html=1;rounded=0;exitX=0.5;exitY=0;exitDx=0;exitDy=0;" parent="avYuVaTCZwgV6i5RGNvt-1" source="avYuVaTCZwgV6i5RGNvt-107" edge="1">
          <mxGeometry width="50" height="50" relative="1" as="geometry">
            <mxPoint x="876.35" y="760" as="sourcePoint" />
            <mxPoint x="877.25" y="740" as="targetPoint" />
          </mxGeometry>
        </mxCell>
        <mxCell id="avYuVaTCZwgV6i5RGNvt-112" value="Copia richiesta correntemente" style="shape=rhombus;perimeter=rhombusPerimeter;whiteSpace=wrap;html=1;align=center;" parent="avYuVaTCZwgV6i5RGNvt-1" vertex="1">
          <mxGeometry x="577.25" y="740" width="110" height="80" as="geometry" />
        </mxCell>
        <mxCell id="avYuVaTCZwgV6i5RGNvt-113" value="" style="endArrow=none;html=1;rounded=0;entryX=0;entryY=0.5;entryDx=0;entryDy=0;exitX=1;exitY=0.5;exitDx=0;exitDy=0;" parent="avYuVaTCZwgV6i5RGNvt-1" source="avYuVaTCZwgV6i5RGNvt-112" target="avYuVaTCZwgV6i5RGNvt-106" edge="1">
          <mxGeometry width="50" height="50" relative="1" as="geometry">
            <mxPoint x="631.5" y="722.5" as="sourcePoint" />
            <mxPoint x="697.5" y="722.5" as="targetPoint" />
          </mxGeometry>
        </mxCell>
        <mxCell id="avYuVaTCZwgV6i5RGNvt-114" value="" style="endArrow=none;html=1;rounded=0;exitX=0.5;exitY=0;exitDx=0;exitDy=0;entryX=0.5;entryY=1;entryDx=0;entryDy=0;" parent="avYuVaTCZwgV6i5RGNvt-1" source="avYuVaTCZwgV6i5RGNvt-112" target="jIEIiENOCSdRkcauAkzY-15" edge="1">
          <mxGeometry width="50" height="50" relative="1" as="geometry">
            <mxPoint x="807.25" y="610" as="sourcePoint" />
            <mxPoint x="757.25" y="550" as="targetPoint" />
            <Array as="points">
              <mxPoint x="632.25" y="560" />
              <mxPoint x="877.25" y="560" />
              <mxPoint x="877.25" y="600" />
              <mxPoint x="957.25" y="600" />
            </Array>
          </mxGeometry>
        </mxCell>
        <mxCell id="avYuVaTCZwgV6i5RGNvt-115" value="(0, 1)" style="text;html=1;align=center;verticalAlign=middle;whiteSpace=wrap;rounded=0;" parent="avYuVaTCZwgV6i5RGNvt-1" vertex="1">
          <mxGeometry x="587.25" y="722.5" width="40" height="30" as="geometry" />
        </mxCell>
        <mxCell id="avYuVaTCZwgV6i5RGNvt-116" value="(1, 1)" style="text;html=1;align=center;verticalAlign=middle;whiteSpace=wrap;rounded=0;" parent="avYuVaTCZwgV6i5RGNvt-1" vertex="1">
          <mxGeometry x="667" y="745" width="40" height="30" as="geometry" />
        </mxCell>
        <mxCell id="m-FSvcT9ls-hyMm9VEZl-0" value="Richiedente corrente" style="shape=rhombus;perimeter=rhombusPerimeter;whiteSpace=wrap;html=1;align=center;" parent="avYuVaTCZwgV6i5RGNvt-1" vertex="1">
          <mxGeometry x="707" y="890" width="100.25" height="80" as="geometry" />
        </mxCell>
        <mxCell id="m-FSvcT9ls-hyMm9VEZl-1" value="" style="endArrow=none;html=1;rounded=0;entryX=0.5;entryY=1;entryDx=0;entryDy=0;exitX=0.5;exitY=0;exitDx=0;exitDy=0;" parent="avYuVaTCZwgV6i5RGNvt-1" source="m-FSvcT9ls-hyMm9VEZl-0" target="avYuVaTCZwgV6i5RGNvt-106" edge="1">
          <mxGeometry width="50" height="50" relative="1" as="geometry">
            <mxPoint x="827.25" y="520" as="sourcePoint" />
            <mxPoint x="757.25" y="810" as="targetPoint" />
          </mxGeometry>
        </mxCell>
        <mxCell id="m-FSvcT9ls-hyMm9VEZl-2" value="" style="endArrow=none;html=1;rounded=0;exitX=1;exitY=0.5;exitDx=0;exitDy=0;entryX=0.5;entryY=1;entryDx=0;entryDy=0;" parent="avYuVaTCZwgV6i5RGNvt-1" source="m-FSvcT9ls-hyMm9VEZl-0" target="YLiIVCOc2Myp0IGPrDRY-5" edge="1">
          <mxGeometry width="50" height="50" relative="1" as="geometry">
            <mxPoint x="767.25" y="900" as="sourcePoint" />
            <mxPoint x="1097.25" y="710" as="targetPoint" />
            <Array as="points">
              <mxPoint x="1250" y="930" />
            </Array>
          </mxGeometry>
        </mxCell>
        <mxCell id="m-FSvcT9ls-hyMm9VEZl-3" value="(1, 1)" style="text;html=1;align=center;verticalAlign=middle;whiteSpace=wrap;rounded=0;" parent="avYuVaTCZwgV6i5RGNvt-1" vertex="1">
          <mxGeometry x="714" y="867.5" width="40" height="30" as="geometry" />
        </mxCell>
        <mxCell id="m-FSvcT9ls-hyMm9VEZl-4" value="(0, 1)" style="text;html=1;align=center;verticalAlign=middle;whiteSpace=wrap;rounded=0;" parent="avYuVaTCZwgV6i5RGNvt-1" vertex="1">
          <mxGeometry x="797.25" y="930" width="40" height="30" as="geometry" />
        </mxCell>
        <mxCell id="jIEIiENOCSdRkcauAkzY-3" value="SEDE OPERATIVA" style="rounded=0;whiteSpace=wrap;html=1;" vertex="1" parent="avYuVaTCZwgV6i5RGNvt-1">
          <mxGeometry x="714" y="200" width="80" height="40" as="geometry" />
        </mxCell>
        <mxCell id="jIEIiENOCSdRkcauAkzY-4" value="SEDE NON PIÙ OPERATIVA" style="rounded=0;whiteSpace=wrap;html=1;" vertex="1" parent="avYuVaTCZwgV6i5RGNvt-1">
          <mxGeometry x="827.25" y="200" width="100" height="40" as="geometry" />
        </mxCell>
        <mxCell id="jIEIiENOCSdRkcauAkzY-5" value="" style="shape=flexArrow;endArrow=classic;html=1;rounded=0;endWidth=8.8;endSize=3.064;" edge="1" parent="avYuVaTCZwgV6i5RGNvt-1">
          <mxGeometry width="50" height="50" relative="1" as="geometry">
            <mxPoint x="817.35" y="260" as="sourcePoint" />
            <mxPoint x="817.35" y="300" as="targetPoint" />
          </mxGeometry>
        </mxCell>
        <mxCell id="jIEIiENOCSdRkcauAkzY-6" value="" style="endArrow=none;html=1;rounded=0;" edge="1" parent="avYuVaTCZwgV6i5RGNvt-1">
          <mxGeometry width="50" height="50" relative="1" as="geometry">
            <mxPoint x="756.85" y="260.0000000000001" as="sourcePoint" />
            <mxPoint x="876.85" y="260.0000000000001" as="targetPoint" />
          </mxGeometry>
        </mxCell>
        <mxCell id="jIEIiENOCSdRkcauAkzY-7" value="" style="endArrow=none;html=1;rounded=0;exitX=0.5;exitY=0;exitDx=0;exitDy=0;" edge="1" parent="avYuVaTCZwgV6i5RGNvt-1">
          <mxGeometry width="50" height="50" relative="1" as="geometry">
            <mxPoint x="756.85" y="260" as="sourcePoint" />
            <mxPoint x="756.85" y="240" as="targetPoint" />
          </mxGeometry>
        </mxCell>
        <mxCell id="jIEIiENOCSdRkcauAkzY-8" value="" style="endArrow=none;html=1;rounded=0;exitX=0.5;exitY=0;exitDx=0;exitDy=0;" edge="1" parent="avYuVaTCZwgV6i5RGNvt-1">
          <mxGeometry width="50" height="50" relative="1" as="geometry">
            <mxPoint x="876.85" y="260" as="sourcePoint" />
            <mxPoint x="876.85" y="240" as="targetPoint" />
          </mxGeometry>
        </mxCell>
        <mxCell id="jIEIiENOCSdRkcauAkzY-9" value="" style="shape=flexArrow;endArrow=classic;html=1;rounded=0;endWidth=8.8;endSize=3.064;" edge="1" parent="avYuVaTCZwgV6i5RGNvt-1">
          <mxGeometry width="50" height="50" relative="1" as="geometry">
            <mxPoint x="896.5500000000001" y="519.6" as="sourcePoint" />
            <mxPoint x="856.95" y="519.6" as="targetPoint" />
          </mxGeometry>
        </mxCell>
        <mxCell id="jIEIiENOCSdRkcauAkzY-10" value="" style="endArrow=none;html=1;rounded=0;" edge="1" parent="avYuVaTCZwgV6i5RGNvt-1">
          <mxGeometry width="50" height="50" relative="1" as="geometry">
            <mxPoint x="897.25" y="480" as="sourcePoint" />
            <mxPoint x="897.25" y="560" as="targetPoint" />
          </mxGeometry>
        </mxCell>
        <mxCell id="jIEIiENOCSdRkcauAkzY-11" value="" style="endArrow=none;html=1;rounded=0;" edge="1" parent="avYuVaTCZwgV6i5RGNvt-1">
          <mxGeometry width="50" height="50" relative="1" as="geometry">
            <mxPoint x="917.25" y="480" as="sourcePoint" />
            <mxPoint x="897.25" y="480" as="targetPoint" />
          </mxGeometry>
        </mxCell>
        <mxCell id="jIEIiENOCSdRkcauAkzY-14" value="" style="endArrow=none;html=1;rounded=0;" edge="1" parent="avYuVaTCZwgV6i5RGNvt-1">
          <mxGeometry width="50" height="50" relative="1" as="geometry">
            <mxPoint x="897.25" y="559" as="sourcePoint" />
            <mxPoint x="917.25" y="559" as="targetPoint" />
          </mxGeometry>
        </mxCell>
        <mxCell id="jIEIiENOCSdRkcauAkzY-15" value="COPIA VALIDA" style="rounded=0;whiteSpace=wrap;html=1;" vertex="1" parent="avYuVaTCZwgV6i5RGNvt-1">
          <mxGeometry x="916.75" y="540" width="80" height="40" as="geometry" />
        </mxCell>
        <mxCell id="jIEIiENOCSdRkcauAkzY-16" value="COPIA ELIMINATA" style="rounded=0;whiteSpace=wrap;html=1;" vertex="1" parent="avYuVaTCZwgV6i5RGNvt-1">
          <mxGeometry x="916.75" y="460" width="80" height="40" as="geometry" />
        </mxCell>
        <mxCell id="YLiIVCOc2Myp0IGPrDRY-1" value="" style="shape=flexArrow;endArrow=classic;html=1;rounded=0;endWidth=8.8;endSize=3.064;" edge="1" parent="avYuVaTCZwgV6i5RGNvt-1">
          <mxGeometry width="50" height="50" relative="1" as="geometry">
            <mxPoint x="1176.8500000000001" y="679.6" as="sourcePoint" />
            <mxPoint x="1137.25" y="679.6" as="targetPoint" />
          </mxGeometry>
        </mxCell>
        <mxCell id="YLiIVCOc2Myp0IGPrDRY-2" value="" style="endArrow=none;html=1;rounded=0;" edge="1" parent="avYuVaTCZwgV6i5RGNvt-1">
          <mxGeometry width="50" height="50" relative="1" as="geometry">
            <mxPoint x="1177.55" y="640" as="sourcePoint" />
            <mxPoint x="1177.55" y="720" as="targetPoint" />
          </mxGeometry>
        </mxCell>
        <mxCell id="YLiIVCOc2Myp0IGPrDRY-3" value="" style="endArrow=none;html=1;rounded=0;" edge="1" parent="avYuVaTCZwgV6i5RGNvt-1">
          <mxGeometry width="50" height="50" relative="1" as="geometry">
            <mxPoint x="1197.55" y="640" as="sourcePoint" />
            <mxPoint x="1177.55" y="640" as="targetPoint" />
          </mxGeometry>
        </mxCell>
        <mxCell id="YLiIVCOc2Myp0IGPrDRY-4" value="" style="endArrow=none;html=1;rounded=0;" edge="1" parent="avYuVaTCZwgV6i5RGNvt-1">
          <mxGeometry width="50" height="50" relative="1" as="geometry">
            <mxPoint x="1177.55" y="719" as="sourcePoint" />
            <mxPoint x="1197.55" y="719" as="targetPoint" />
          </mxGeometry>
        </mxCell>
        <mxCell id="YLiIVCOc2Myp0IGPrDRY-5" value="LETTORE REGISTRATO" style="rounded=0;whiteSpace=wrap;html=1;" vertex="1" parent="avYuVaTCZwgV6i5RGNvt-1">
          <mxGeometry x="1197.05" y="700" width="102.95" height="40" as="geometry" />
        </mxCell>
        <mxCell id="YLiIVCOc2Myp0IGPrDRY-6" value="LETTORE NON PIÙ REGISTRATO" style="rounded=0;whiteSpace=wrap;html=1;" vertex="1" parent="avYuVaTCZwgV6i5RGNvt-1">
          <mxGeometry x="1197.05" y="620" width="102.95" height="40" as="geometry" />
        </mxCell>
        <mxCell id="YLiIVCOc2Myp0IGPrDRY-7" value="&lt;h1 style=&quot;margin-top: 0px;&quot;&gt;Note&lt;/h1&gt;&lt;div&gt;Tenere traccia dello stato di &lt;b&gt;autore&lt;/b&gt;, &lt;b&gt;libro&lt;/b&gt;,&amp;nbsp;&lt;b&gt;sede&lt;/b&gt;, &lt;b&gt;copia&lt;/b&gt;, &lt;b&gt;lettore &lt;/b&gt;e &lt;b&gt;prestito&lt;/b&gt;&amp;nbsp;tramite generalizzazioni serve a garantire uno storico dei prestiti valido.&lt;/div&gt;" style="text;html=1;whiteSpace=wrap;overflow=hidden;rounded=0;" vertex="1" parent="avYuVaTCZwgV6i5RGNvt-1">
          <mxGeometry x="1138.25" y="425" width="270" height="110" as="geometry" />
        </mxCell>
        <mxCell id="YLiIVCOc2Myp0IGPrDRY-8" value="" style="shape=flexArrow;endArrow=classic;html=1;rounded=0;endWidth=8.8;endSize=3.064;" edge="1" parent="avYuVaTCZwgV6i5RGNvt-1">
          <mxGeometry width="50" height="50" relative="1" as="geometry">
            <mxPoint x="480" y="520" as="sourcePoint" />
            <mxPoint x="517.5999999999999" y="519.6" as="targetPoint" />
          </mxGeometry>
        </mxCell>
        <mxCell id="YLiIVCOc2Myp0IGPrDRY-9" value="" style="endArrow=none;html=1;rounded=0;" edge="1" parent="avYuVaTCZwgV6i5RGNvt-1">
          <mxGeometry width="50" height="50" relative="1" as="geometry">
            <mxPoint x="480" y="490" as="sourcePoint" />
            <mxPoint x="480" y="550" as="targetPoint" />
          </mxGeometry>
        </mxCell>
        <mxCell id="YLiIVCOc2Myp0IGPrDRY-10" value="" style="endArrow=none;html=1;rounded=0;" edge="1" parent="avYuVaTCZwgV6i5RGNvt-1">
          <mxGeometry width="50" height="50" relative="1" as="geometry">
            <mxPoint x="480" y="490" as="sourcePoint" />
            <mxPoint x="460" y="490" as="targetPoint" />
          </mxGeometry>
        </mxCell>
        <mxCell id="YLiIVCOc2Myp0IGPrDRY-11" value="" style="endArrow=none;html=1;rounded=0;" edge="1" parent="avYuVaTCZwgV6i5RGNvt-1">
          <mxGeometry width="50" height="50" relative="1" as="geometry">
            <mxPoint x="460" y="550" as="sourcePoint" />
            <mxPoint x="480" y="550" as="targetPoint" />
          </mxGeometry>
        </mxCell>
        <mxCell id="YLiIVCOc2Myp0IGPrDRY-12" value="LIBRO ELIMINATO" style="rounded=0;whiteSpace=wrap;html=1;flipH=1;" vertex="1" parent="avYuVaTCZwgV6i5RGNvt-1">
          <mxGeometry x="380" y="530" width="82.95" height="40" as="geometry" />
        </mxCell>
        <mxCell id="YLiIVCOc2Myp0IGPrDRY-13" value="LIBRO VALIDO" style="rounded=0;whiteSpace=wrap;html=1;flipH=1;" vertex="1" parent="avYuVaTCZwgV6i5RGNvt-1">
          <mxGeometry x="380" y="470" width="82.95" height="40" as="geometry" />
        </mxCell>
        <mxCell id="YLiIVCOc2Myp0IGPrDRY-14" value="AUTORE VALIDO" style="rounded=0;whiteSpace=wrap;html=1;" vertex="1" parent="avYuVaTCZwgV6i5RGNvt-1">
          <mxGeometry x="453.75" y="200" width="80" height="40" as="geometry" />
        </mxCell>
        <mxCell id="YLiIVCOc2Myp0IGPrDRY-15" value="AUTORE ELIMINATO" style="rounded=0;whiteSpace=wrap;html=1;" vertex="1" parent="avYuVaTCZwgV6i5RGNvt-1">
          <mxGeometry x="580" y="200" width="80" height="40" as="geometry" />
        </mxCell>
        <mxCell id="YLiIVCOc2Myp0IGPrDRY-16" value="" style="shape=flexArrow;endArrow=classic;html=1;rounded=0;endWidth=8.8;endSize=3.064;" edge="1" parent="avYuVaTCZwgV6i5RGNvt-1">
          <mxGeometry width="50" height="50" relative="1" as="geometry">
            <mxPoint x="557.1" y="260" as="sourcePoint" />
            <mxPoint x="557.1" y="300" as="targetPoint" />
          </mxGeometry>
        </mxCell>
        <mxCell id="YLiIVCOc2Myp0IGPrDRY-17" value="" style="endArrow=none;html=1;rounded=0;" edge="1" parent="avYuVaTCZwgV6i5RGNvt-1">
          <mxGeometry width="50" height="50" relative="1" as="geometry">
            <mxPoint x="496.6" y="260.0000000000001" as="sourcePoint" />
            <mxPoint x="616.6" y="260.0000000000001" as="targetPoint" />
          </mxGeometry>
        </mxCell>
        <mxCell id="YLiIVCOc2Myp0IGPrDRY-18" value="" style="endArrow=none;html=1;rounded=0;exitX=0.5;exitY=0;exitDx=0;exitDy=0;" edge="1" parent="avYuVaTCZwgV6i5RGNvt-1">
          <mxGeometry width="50" height="50" relative="1" as="geometry">
            <mxPoint x="496.6" y="260" as="sourcePoint" />
            <mxPoint x="496.6" y="240" as="targetPoint" />
          </mxGeometry>
        </mxCell>
        <mxCell id="YLiIVCOc2Myp0IGPrDRY-19" value="" style="endArrow=none;html=1;rounded=0;exitX=0.5;exitY=0;exitDx=0;exitDy=0;" edge="1" parent="avYuVaTCZwgV6i5RGNvt-1">
          <mxGeometry width="50" height="50" relative="1" as="geometry">
            <mxPoint x="616.6" y="260" as="sourcePoint" />
            <mxPoint x="616.6" y="240" as="targetPoint" />
          </mxGeometry>
        </mxCell>
      </root>
    </mxGraphModel>
  </diagram>
  <diagram id="POyeRlAIEM6ssyboEU5q" name="Schema Logico">
    <mxGraphModel dx="956" dy="559" grid="1" gridSize="10" guides="1" tooltips="1" connect="1" arrows="1" fold="1" page="1" pageScale="1" pageWidth="827" pageHeight="1169" math="0" shadow="0">
      <root>
        <mxCell id="0" />
        <mxCell id="1" parent="0" />
        <mxCell id="PryiWyV4l3Cs9IJDbPkJ-1" value="LIBRO" style="rounded=0;whiteSpace=wrap;html=1;" parent="1" vertex="1">
          <mxGeometry x="110" y="300" width="80" height="40" as="geometry" />
        </mxCell>
        <mxCell id="PryiWyV4l3Cs9IJDbPkJ-2" value="ISBN" style="text;html=1;align=center;verticalAlign=middle;whiteSpace=wrap;rounded=0;" parent="1" vertex="1">
          <mxGeometry x="190" y="250" width="43" height="30" as="geometry" />
        </mxCell>
        <mxCell id="PryiWyV4l3Cs9IJDbPkJ-3" value="" style="endArrow=none;html=1;rounded=0;align=center;verticalAlign=top;endFill=0;labelBackgroundColor=none;endSize=6;startArrow=oval;startFill=1;entryX=0.75;entryY=0;entryDx=0;entryDy=0;exitX=0;exitY=1;exitDx=0;exitDy=0;" parent="1" source="PryiWyV4l3Cs9IJDbPkJ-2" target="PryiWyV4l3Cs9IJDbPkJ-1" edge="1">
          <mxGeometry relative="1" as="geometry">
            <mxPoint x="320" y="175" as="sourcePoint" />
            <mxPoint x="480" y="175" as="targetPoint" />
          </mxGeometry>
        </mxCell>
        <mxCell id="PryiWyV4l3Cs9IJDbPkJ-4" value="" style="html=1;verticalAlign=bottom;labelBackgroundColor=none;endArrow=oval;endFill=0;endSize=8;rounded=0;entryX=1;entryY=0.25;entryDx=0;entryDy=0;exitX=0;exitY=0.75;exitDx=0;exitDy=0;" parent="1" source="PryiWyV4l3Cs9IJDbPkJ-1" target="PryiWyV4l3Cs9IJDbPkJ-5" edge="1">
          <mxGeometry width="160" relative="1" as="geometry">
            <mxPoint x="86" y="305" as="sourcePoint" />
            <mxPoint x="220" y="275" as="targetPoint" />
          </mxGeometry>
        </mxCell>
        <mxCell id="PryiWyV4l3Cs9IJDbPkJ-5" value="titolo" style="text;html=1;align=center;verticalAlign=middle;whiteSpace=wrap;rounded=0;" parent="1" vertex="1">
          <mxGeometry x="26.75" y="340" width="50" height="30" as="geometry" />
        </mxCell>
        <mxCell id="PryiWyV4l3Cs9IJDbPkJ-6" value="" style="html=1;verticalAlign=bottom;labelBackgroundColor=none;endArrow=oval;endFill=0;endSize=8;rounded=0;exitX=0.75;exitY=1;exitDx=0;exitDy=0;" parent="1" source="PryiWyV4l3Cs9IJDbPkJ-1" target="PryiWyV4l3Cs9IJDbPkJ-7" edge="1">
          <mxGeometry width="160" relative="1" as="geometry">
            <mxPoint x="190" y="370" as="sourcePoint" />
            <mxPoint x="237" y="345" as="targetPoint" />
          </mxGeometry>
        </mxCell>
        <mxCell id="PryiWyV4l3Cs9IJDbPkJ-7" value="trama" style="text;html=1;align=left;verticalAlign=middle;whiteSpace=wrap;rounded=0;" parent="1" vertex="1">
          <mxGeometry x="169.25" y="360" width="40" height="30" as="geometry" />
        </mxCell>
        <mxCell id="PryiWyV4l3Cs9IJDbPkJ-12" value="casa editrice" style="text;html=1;align=center;verticalAlign=middle;whiteSpace=wrap;rounded=0;" parent="1" vertex="1">
          <mxGeometry x="97.75" y="360" width="47" height="35" as="geometry" />
        </mxCell>
        <mxCell id="PryiWyV4l3Cs9IJDbPkJ-13" value="" style="html=1;verticalAlign=bottom;labelBackgroundColor=none;endArrow=oval;endFill=0;endSize=8;rounded=0;exitX=0.25;exitY=1;exitDx=0;exitDy=0;entryX=0.5;entryY=0;entryDx=0;entryDy=0;" parent="1" source="PryiWyV4l3Cs9IJDbPkJ-1" target="PryiWyV4l3Cs9IJDbPkJ-12" edge="1">
          <mxGeometry width="160" relative="1" as="geometry">
            <mxPoint x="90" y="355" as="sourcePoint" />
            <mxPoint x="17" y="365" as="targetPoint" />
          </mxGeometry>
        </mxCell>
        <mxCell id="PryiWyV4l3Cs9IJDbPkJ-14" value="(1, N)" style="text;html=1;align=center;verticalAlign=middle;whiteSpace=wrap;rounded=0;labelBackgroundColor=default;" parent="1" vertex="1">
          <mxGeometry x="99" y="230" width="40" height="20" as="geometry" />
        </mxCell>
        <mxCell id="PryiWyV4l3Cs9IJDbPkJ-15" value="COPIA" style="rounded=0;whiteSpace=wrap;html=1;" parent="1" vertex="1">
          <mxGeometry x="389" y="300" width="80" height="40" as="geometry" />
        </mxCell>
        <mxCell id="PryiWyV4l3Cs9IJDbPkJ-27" value="Copiato" style="shape=rhombus;perimeter=rhombusPerimeter;whiteSpace=wrap;html=1;align=center;" parent="1" vertex="1">
          <mxGeometry x="255.75" y="300" width="63.25" height="40" as="geometry" />
        </mxCell>
        <mxCell id="PryiWyV4l3Cs9IJDbPkJ-28" value="" style="endArrow=none;html=1;rounded=0;entryX=0;entryY=0.5;entryDx=0;entryDy=0;exitX=1;exitY=0.5;exitDx=0;exitDy=0;" parent="1" source="PryiWyV4l3Cs9IJDbPkJ-1" target="PryiWyV4l3Cs9IJDbPkJ-27" edge="1">
          <mxGeometry width="50" height="50" relative="1" as="geometry">
            <mxPoint x="303" y="425" as="sourcePoint" />
            <mxPoint x="353" y="375" as="targetPoint" />
          </mxGeometry>
        </mxCell>
        <mxCell id="PryiWyV4l3Cs9IJDbPkJ-29" value="" style="endArrow=none;html=1;rounded=0;entryX=0;entryY=0.5;entryDx=0;entryDy=0;exitX=1;exitY=0.5;exitDx=0;exitDy=0;" parent="1" source="PryiWyV4l3Cs9IJDbPkJ-27" target="PryiWyV4l3Cs9IJDbPkJ-15" edge="1">
          <mxGeometry width="50" height="50" relative="1" as="geometry">
            <mxPoint x="180" y="315" as="sourcePoint" />
            <mxPoint x="223" y="315" as="targetPoint" />
          </mxGeometry>
        </mxCell>
        <mxCell id="PryiWyV4l3Cs9IJDbPkJ-30" value="(1, 1)" style="text;html=1;align=center;verticalAlign=middle;whiteSpace=wrap;rounded=0;" parent="1" vertex="1">
          <mxGeometry x="309.25" y="325" width="40" height="20" as="geometry" />
        </mxCell>
        <mxCell id="PryiWyV4l3Cs9IJDbPkJ-31" value="(1, N)" style="text;html=1;align=center;verticalAlign=middle;whiteSpace=wrap;rounded=0;" parent="1" vertex="1">
          <mxGeometry x="224.25" y="325" width="40" height="20" as="geometry" />
        </mxCell>
        <mxCell id="EecY8BA8oYN59nGt1QVO-1" value="AUTORE" style="rounded=0;whiteSpace=wrap;html=1;" parent="1" vertex="1">
          <mxGeometry x="110" y="100" width="80" height="40" as="geometry" />
        </mxCell>
        <mxCell id="EecY8BA8oYN59nGt1QVO-2" value="" style="html=1;verticalAlign=bottom;labelBackgroundColor=none;endArrow=oval;endFill=0;endSize=8;rounded=0;exitX=1;exitY=0.25;exitDx=0;exitDy=0;" parent="1" source="EecY8BA8oYN59nGt1QVO-1" target="EecY8BA8oYN59nGt1QVO-3" edge="1">
          <mxGeometry width="160" relative="1" as="geometry">
            <mxPoint x="319.25" y="-3.75" as="sourcePoint" />
            <mxPoint x="219.25" y="96.25" as="targetPoint" />
          </mxGeometry>
        </mxCell>
        <mxCell id="EecY8BA8oYN59nGt1QVO-3" value="nome" style="text;html=1;align=center;verticalAlign=middle;whiteSpace=wrap;rounded=0;" parent="1" vertex="1">
          <mxGeometry x="214.25" y="85" width="50" height="20" as="geometry" />
        </mxCell>
        <mxCell id="EecY8BA8oYN59nGt1QVO-4" value="" style="html=1;verticalAlign=bottom;labelBackgroundColor=none;endArrow=oval;endFill=0;endSize=8;rounded=0;exitX=0.75;exitY=0;exitDx=0;exitDy=0;" parent="1" source="EecY8BA8oYN59nGt1QVO-1" target="EecY8BA8oYN59nGt1QVO-5" edge="1">
          <mxGeometry width="160" relative="1" as="geometry">
            <mxPoint x="189.25" y="191.25" as="sourcePoint" />
            <mxPoint x="236.25" y="166.25" as="targetPoint" />
          </mxGeometry>
        </mxCell>
        <mxCell id="EecY8BA8oYN59nGt1QVO-5" value="data di nascita" style="text;html=1;align=left;verticalAlign=middle;whiteSpace=wrap;rounded=0;" parent="1" vertex="1">
          <mxGeometry x="148.5" y="43.75" width="84.5" height="26.25" as="geometry" />
        </mxCell>
        <mxCell id="EecY8BA8oYN59nGt1QVO-6" value="" style="html=1;verticalAlign=bottom;labelBackgroundColor=none;endArrow=oval;endFill=0;endSize=8;rounded=0;exitX=0;exitY=0.25;exitDx=0;exitDy=0;entryX=1;entryY=0.75;entryDx=0;entryDy=0;" parent="1" source="EecY8BA8oYN59nGt1QVO-1" target="EecY8BA8oYN59nGt1QVO-7" edge="1">
          <mxGeometry width="160" relative="1" as="geometry">
            <mxPoint x="49.25" y="36.25" as="sourcePoint" />
            <mxPoint x="119.25" y="66.25" as="targetPoint" />
            <Array as="points" />
          </mxGeometry>
        </mxCell>
        <mxCell id="EecY8BA8oYN59nGt1QVO-7" value="biografia" style="text;html=1;align=center;verticalAlign=middle;whiteSpace=wrap;rounded=0;" parent="1" vertex="1">
          <mxGeometry x="10" y="81.25" width="60" height="30" as="geometry" />
        </mxCell>
        <mxCell id="EecY8BA8oYN59nGt1QVO-8" value="data di morte" style="text;html=1;align=center;verticalAlign=middle;whiteSpace=wrap;rounded=0;fontStyle=0" parent="1" vertex="1">
          <mxGeometry x="13.25" y="125" width="53.5" height="35" as="geometry" />
        </mxCell>
        <mxCell id="EecY8BA8oYN59nGt1QVO-9" value="" style="html=1;verticalAlign=bottom;labelBackgroundColor=none;endArrow=oval;endFill=0;endSize=8;rounded=0;entryX=1;entryY=0.5;entryDx=0;entryDy=0;exitX=0;exitY=0.75;exitDx=0;exitDy=0;" parent="1" source="EecY8BA8oYN59nGt1QVO-1" target="EecY8BA8oYN59nGt1QVO-8" edge="1">
          <mxGeometry width="160" relative="1" as="geometry">
            <mxPoint x="99" y="110" as="sourcePoint" />
            <mxPoint x="139.25" y="166.25" as="targetPoint" />
          </mxGeometry>
        </mxCell>
        <mxCell id="EecY8BA8oYN59nGt1QVO-10" value="id" style="text;html=1;align=center;verticalAlign=middle;whiteSpace=wrap;rounded=0;" parent="1" vertex="1">
          <mxGeometry x="97.75" y="40" width="26" height="30" as="geometry" />
        </mxCell>
        <mxCell id="EecY8BA8oYN59nGt1QVO-11" value="" style="endArrow=none;html=1;rounded=0;align=center;verticalAlign=top;endFill=0;labelBackgroundColor=none;endSize=6;startArrow=oval;startFill=1;entryX=0.25;entryY=0;entryDx=0;entryDy=0;exitX=0.5;exitY=1;exitDx=0;exitDy=0;" parent="1" source="EecY8BA8oYN59nGt1QVO-10" target="EecY8BA8oYN59nGt1QVO-1" edge="1">
          <mxGeometry relative="1" as="geometry">
            <mxPoint x="176.25" y="-143.75" as="sourcePoint" />
            <mxPoint x="156.25" y="-123.75" as="targetPoint" />
          </mxGeometry>
        </mxCell>
        <mxCell id="EecY8BA8oYN59nGt1QVO-12" value="" style="html=1;verticalAlign=bottom;labelBackgroundColor=none;endArrow=oval;endFill=0;endSize=8;rounded=0;exitX=1;exitY=0.75;exitDx=0;exitDy=0;" parent="1" source="EecY8BA8oYN59nGt1QVO-1" target="EecY8BA8oYN59nGt1QVO-13" edge="1">
          <mxGeometry width="160" relative="1" as="geometry">
            <mxPoint x="174.25" y="146.25" as="sourcePoint" />
            <mxPoint x="224.25" y="126.25" as="targetPoint" />
          </mxGeometry>
        </mxCell>
        <mxCell id="EecY8BA8oYN59nGt1QVO-13" value="cognome" style="text;html=1;align=center;verticalAlign=middle;whiteSpace=wrap;rounded=0;" parent="1" vertex="1">
          <mxGeometry x="214.25" y="130" width="65" height="20" as="geometry" />
        </mxCell>
        <mxCell id="EecY8BA8oYN59nGt1QVO-14" value="(0, 1)" style="text;html=1;align=center;verticalAlign=middle;whiteSpace=wrap;rounded=0;labelBackgroundColor=default;" parent="1" vertex="1">
          <mxGeometry x="70" y="125" width="40" height="20" as="geometry" />
        </mxCell>
        <mxCell id="EecY8BA8oYN59nGt1QVO-15" value="(1, N)" style="text;html=1;align=center;verticalAlign=middle;whiteSpace=wrap;rounded=0;labelBackgroundColor=default;" parent="1" vertex="1">
          <mxGeometry x="99" y="180" width="40" height="20" as="geometry" />
        </mxCell>
        <mxCell id="EecY8BA8oYN59nGt1QVO-16" value="Scritto" style="shape=rhombus;perimeter=rhombusPerimeter;whiteSpace=wrap;html=1;align=center;" parent="1" vertex="1">
          <mxGeometry x="120" y="200" width="60" height="40" as="geometry" />
        </mxCell>
        <mxCell id="EecY8BA8oYN59nGt1QVO-17" value="" style="endArrow=none;html=1;rounded=0;entryX=0.5;entryY=1;entryDx=0;entryDy=0;exitX=0.5;exitY=0;exitDx=0;exitDy=0;" parent="1" source="PryiWyV4l3Cs9IJDbPkJ-1" target="EecY8BA8oYN59nGt1QVO-16" edge="1">
          <mxGeometry width="50" height="50" relative="1" as="geometry">
            <mxPoint x="180" y="315" as="sourcePoint" />
            <mxPoint x="223" y="315" as="targetPoint" />
          </mxGeometry>
        </mxCell>
        <mxCell id="EecY8BA8oYN59nGt1QVO-18" value="" style="endArrow=none;html=1;rounded=0;entryX=0.5;entryY=1;entryDx=0;entryDy=0;exitX=0.5;exitY=0;exitDx=0;exitDy=0;" parent="1" source="EecY8BA8oYN59nGt1QVO-16" target="EecY8BA8oYN59nGt1QVO-1" edge="1">
          <mxGeometry width="50" height="50" relative="1" as="geometry">
            <mxPoint x="130" y="195" as="sourcePoint" />
            <mxPoint x="130" y="145" as="targetPoint" />
          </mxGeometry>
        </mxCell>
        <mxCell id="RV2QbcGf4LLr80OaygcD-1" value="SEDE" style="rounded=0;whiteSpace=wrap;html=1;" parent="1" vertex="1">
          <mxGeometry x="389" y="100" width="80" height="40" as="geometry" />
        </mxCell>
        <mxCell id="RV2QbcGf4LLr80OaygcD-2" value="id" style="text;html=1;align=center;verticalAlign=middle;whiteSpace=wrap;rounded=0;" parent="1" vertex="1">
          <mxGeometry x="461.75" y="51.25" width="20" height="30" as="geometry" />
        </mxCell>
        <mxCell id="RV2QbcGf4LLr80OaygcD-3" value="" style="endArrow=none;html=1;rounded=0;align=center;verticalAlign=top;endFill=0;labelBackgroundColor=none;endSize=6;startArrow=oval;startFill=1;entryX=0.75;entryY=0;entryDx=0;entryDy=0;exitX=0.25;exitY=1;exitDx=0;exitDy=0;" parent="1" source="RV2QbcGf4LLr80OaygcD-2" target="RV2QbcGf4LLr80OaygcD-1" edge="1">
          <mxGeometry relative="1" as="geometry">
            <mxPoint x="615.75" as="sourcePoint" />
            <mxPoint x="775.75" as="targetPoint" />
          </mxGeometry>
        </mxCell>
        <mxCell id="RV2QbcGf4LLr80OaygcD-8" value="" style="html=1;verticalAlign=bottom;labelBackgroundColor=none;endArrow=oval;endFill=0;endSize=8;rounded=0;exitX=0.5;exitY=0;exitDx=0;exitDy=0;entryX=0.5;entryY=1;entryDx=0;entryDy=0;" parent="1" source="RV2QbcGf4LLr80OaygcD-1" target="RV2QbcGf4LLr80OaygcD-9" edge="1">
          <mxGeometry width="160" relative="1" as="geometry">
            <mxPoint x="345.75" y="40" as="sourcePoint" />
            <mxPoint x="415.75" y="70" as="targetPoint" />
            <Array as="points" />
          </mxGeometry>
        </mxCell>
        <mxCell id="RV2QbcGf4LLr80OaygcD-9" value="via/piazza" style="text;html=1;align=center;verticalAlign=middle;whiteSpace=wrap;rounded=0;spacingBottom=0;" parent="1" vertex="1">
          <mxGeometry x="399" y="40" width="60" height="26.25" as="geometry" />
        </mxCell>
        <mxCell id="RV2QbcGf4LLr80OaygcD-13" value="città" style="text;html=1;align=center;verticalAlign=middle;whiteSpace=wrap;rounded=0;" parent="1" vertex="1">
          <mxGeometry x="363.38" y="51.25" width="40" height="30" as="geometry" />
        </mxCell>
        <mxCell id="RV2QbcGf4LLr80OaygcD-18" value="(1, 1)" style="text;html=1;align=center;verticalAlign=middle;whiteSpace=wrap;rounded=0;" parent="1" vertex="1">
          <mxGeometry x="389" y="230" width="40" height="30" as="geometry" />
        </mxCell>
        <mxCell id="RV2QbcGf4LLr80OaygcD-19" value="(1, N)" style="text;html=1;align=center;verticalAlign=middle;whiteSpace=wrap;rounded=0;" parent="1" vertex="1">
          <mxGeometry x="385.75" y="175" width="40" height="30" as="geometry" />
        </mxCell>
        <mxCell id="RV2QbcGf4LLr80OaygcD-20" value="Gestione" style="shape=rhombus;perimeter=rhombusPerimeter;whiteSpace=wrap;html=1;align=center;" parent="1" vertex="1">
          <mxGeometry x="389" y="200" width="80" height="40" as="geometry" />
        </mxCell>
        <mxCell id="RV2QbcGf4LLr80OaygcD-21" value="" style="endArrow=none;html=1;rounded=0;exitX=0.5;exitY=0;exitDx=0;exitDy=0;entryX=0.5;entryY=1;entryDx=0;entryDy=0;" parent="1" source="RV2QbcGf4LLr80OaygcD-20" target="RV2QbcGf4LLr80OaygcD-1" edge="1">
          <mxGeometry width="50" height="50" relative="1" as="geometry">
            <mxPoint x="427.1600000000001" y="194.5" as="sourcePoint" />
            <mxPoint x="445.75" y="165" as="targetPoint" />
          </mxGeometry>
        </mxCell>
        <mxCell id="RV2QbcGf4LLr80OaygcD-22" value="" style="endArrow=none;html=1;rounded=0;entryX=0.5;entryY=1;entryDx=0;entryDy=0;exitX=0.5;exitY=0;exitDx=0;exitDy=0;" parent="1" source="PryiWyV4l3Cs9IJDbPkJ-15" target="RV2QbcGf4LLr80OaygcD-20" edge="1">
          <mxGeometry width="50" height="50" relative="1" as="geometry">
            <mxPoint x="415.75" y="265" as="sourcePoint" />
            <mxPoint x="520.1600000000001" y="314.5" as="targetPoint" />
          </mxGeometry>
        </mxCell>
        <mxCell id="Lof1JFj9vDdooGDJ3tr7-15" value="LETTORE" style="rounded=0;whiteSpace=wrap;html=1;" parent="1" vertex="1">
          <mxGeometry x="669" y="460" width="80" height="40" as="geometry" />
        </mxCell>
        <mxCell id="Lof1JFj9vDdooGDJ3tr7-16" value="" style="html=1;verticalAlign=bottom;labelBackgroundColor=none;endArrow=oval;endFill=0;endSize=8;rounded=0;exitX=0.75;exitY=1;exitDx=0;exitDy=0;entryX=0.25;entryY=0;entryDx=0;entryDy=0;" parent="1" source="Lof1JFj9vDdooGDJ3tr7-15" target="Lof1JFj9vDdooGDJ3tr7-17" edge="1">
          <mxGeometry width="160" relative="1" as="geometry">
            <mxPoint x="914" y="352.5" as="sourcePoint" />
            <mxPoint x="814" y="452.5" as="targetPoint" />
          </mxGeometry>
        </mxCell>
        <mxCell id="Lof1JFj9vDdooGDJ3tr7-17" value="nome" style="text;html=1;align=center;verticalAlign=middle;whiteSpace=wrap;rounded=0;" parent="1" vertex="1">
          <mxGeometry x="737.5" y="532.5" width="50" height="20" as="geometry" />
        </mxCell>
        <mxCell id="Lof1JFj9vDdooGDJ3tr7-18" value="" style="html=1;verticalAlign=bottom;labelBackgroundColor=none;endArrow=oval;endFill=0;endSize=8;rounded=0;exitX=0.25;exitY=0;exitDx=0;exitDy=0;entryX=0.75;entryY=1;entryDx=0;entryDy=0;" parent="1" source="Lof1JFj9vDdooGDJ3tr7-15" target="Lof1JFj9vDdooGDJ3tr7-19" edge="1">
          <mxGeometry width="160" relative="1" as="geometry">
            <mxPoint x="784" y="547.5" as="sourcePoint" />
            <mxPoint x="769" y="527.5" as="targetPoint" />
          </mxGeometry>
        </mxCell>
        <mxCell id="Lof1JFj9vDdooGDJ3tr7-19" value="categoria" style="text;html=1;align=left;verticalAlign=middle;whiteSpace=wrap;rounded=0;" parent="1" vertex="1">
          <mxGeometry x="619" y="405" width="60" height="27.5" as="geometry" />
        </mxCell>
        <mxCell id="Lof1JFj9vDdooGDJ3tr7-20" value="" style="html=1;verticalAlign=bottom;labelBackgroundColor=none;endArrow=oval;endFill=0;endSize=8;rounded=0;exitX=1;exitY=0.25;exitDx=0;exitDy=0;entryX=0;entryY=0.75;entryDx=0;entryDy=0;" parent="1" source="Lof1JFj9vDdooGDJ3tr7-15" target="Lof1JFj9vDdooGDJ3tr7-21" edge="1">
          <mxGeometry width="160" relative="1" as="geometry">
            <mxPoint x="644" y="392.5" as="sourcePoint" />
            <mxPoint x="789" y="460" as="targetPoint" />
            <Array as="points" />
          </mxGeometry>
        </mxCell>
        <mxCell id="Lof1JFj9vDdooGDJ3tr7-21" value="email" style="text;html=1;align=center;verticalAlign=middle;whiteSpace=wrap;rounded=0;" parent="1" vertex="1">
          <mxGeometry x="787.5" y="430" width="55.75" height="30" as="geometry" />
        </mxCell>
        <mxCell id="Lof1JFj9vDdooGDJ3tr7-22" value="" style="html=1;verticalAlign=bottom;labelBackgroundColor=none;endArrow=oval;endFill=0;endSize=8;rounded=0;entryX=0.5;entryY=1;entryDx=0;entryDy=0;exitX=0.5;exitY=0;exitDx=0;exitDy=0;" parent="1" source="Lof1JFj9vDdooGDJ3tr7-15" target="Lof1JFj9vDdooGDJ3tr7-24" edge="1">
          <mxGeometry width="160" relative="1" as="geometry">
            <mxPoint x="729" y="460" as="sourcePoint" />
            <mxPoint x="664" y="452.5" as="targetPoint" />
          </mxGeometry>
        </mxCell>
        <mxCell id="Lof1JFj9vDdooGDJ3tr7-24" value="hash" style="text;html=1;align=center;verticalAlign=middle;whiteSpace=wrap;rounded=0;" parent="1" vertex="1">
          <mxGeometry x="674.5" y="395" width="70" height="25" as="geometry" />
        </mxCell>
        <mxCell id="Lof1JFj9vDdooGDJ3tr7-26" value="c.f." style="text;html=1;align=center;verticalAlign=middle;whiteSpace=wrap;rounded=0;" parent="1" vertex="1">
          <mxGeometry x="787.5" y="500" width="30" height="30" as="geometry" />
        </mxCell>
        <mxCell id="Lof1JFj9vDdooGDJ3tr7-27" value="" style="endArrow=none;html=1;rounded=0;align=center;verticalAlign=top;endFill=0;labelBackgroundColor=none;endSize=6;startArrow=oval;startFill=1;entryX=1;entryY=0.75;entryDx=0;entryDy=0;exitX=0;exitY=0.25;exitDx=0;exitDy=0;" parent="1" source="Lof1JFj9vDdooGDJ3tr7-26" target="Lof1JFj9vDdooGDJ3tr7-15" edge="1">
          <mxGeometry relative="1" as="geometry">
            <mxPoint x="771" y="212.5" as="sourcePoint" />
            <mxPoint x="751" y="232.5" as="targetPoint" />
          </mxGeometry>
        </mxCell>
        <mxCell id="Lof1JFj9vDdooGDJ3tr7-28" value="" style="html=1;verticalAlign=bottom;labelBackgroundColor=none;endArrow=oval;endFill=0;endSize=8;rounded=0;exitX=0.5;exitY=1;exitDx=0;exitDy=0;entryX=0.5;entryY=0;entryDx=0;entryDy=0;" parent="1" source="Lof1JFj9vDdooGDJ3tr7-15" target="Lof1JFj9vDdooGDJ3tr7-29" edge="1">
          <mxGeometry width="160" relative="1" as="geometry">
            <mxPoint x="769" y="502.5" as="sourcePoint" />
            <mxPoint x="819" y="482.5" as="targetPoint" />
          </mxGeometry>
        </mxCell>
        <mxCell id="Lof1JFj9vDdooGDJ3tr7-29" value="cognome" style="text;html=1;align=center;verticalAlign=middle;whiteSpace=wrap;rounded=0;" parent="1" vertex="1">
          <mxGeometry x="676.5" y="540" width="65" height="20" as="geometry" />
        </mxCell>
        <mxCell id="Lof1JFj9vDdooGDJ3tr7-32" value="Copie Richiesta" style="shape=rhombus;perimeter=rhombusPerimeter;whiteSpace=wrap;html=1;align=center;" parent="1" vertex="1">
          <mxGeometry x="389" y="370" width="80" height="60" as="geometry" />
        </mxCell>
        <mxCell id="Lof1JFj9vDdooGDJ3tr7-35" value="Richiedenti" style="shape=rhombus;perimeter=rhombusPerimeter;whiteSpace=wrap;html=1;align=center;" parent="1" vertex="1">
          <mxGeometry x="519" y="450" width="100" height="60" as="geometry" />
        </mxCell>
        <mxCell id="Lof1JFj9vDdooGDJ3tr7-36" value="" style="endArrow=none;html=1;rounded=0;entryX=1;entryY=0.5;entryDx=0;entryDy=0;exitX=0;exitY=0.5;exitDx=0;exitDy=0;" parent="1" source="Lof1JFj9vDdooGDJ3tr7-15" target="Lof1JFj9vDdooGDJ3tr7-35" edge="1">
          <mxGeometry width="50" height="50" relative="1" as="geometry">
            <mxPoint x="199" y="470" as="sourcePoint" />
            <mxPoint x="351.5" y="552.5" as="targetPoint" />
          </mxGeometry>
        </mxCell>
        <mxCell id="Lof1JFj9vDdooGDJ3tr7-37" value="" style="endArrow=none;html=1;rounded=0;exitX=0;exitY=0.5;exitDx=0;exitDy=0;entryX=1;entryY=0.5;entryDx=0;entryDy=0;" parent="1" source="Lof1JFj9vDdooGDJ3tr7-35" target="I4Aqu3GICazZYpduQ6ZL-6" edge="1">
          <mxGeometry width="50" height="50" relative="1" as="geometry">
            <mxPoint x="519" y="450" as="sourcePoint" />
            <mxPoint x="489" y="500" as="targetPoint" />
          </mxGeometry>
        </mxCell>
        <mxCell id="Lof1JFj9vDdooGDJ3tr7-38" value="(0, N)" style="text;html=1;align=center;verticalAlign=middle;whiteSpace=wrap;rounded=0;" parent="1" vertex="1">
          <mxGeometry x="438.5" y="360" width="40" height="30" as="geometry" />
        </mxCell>
        <mxCell id="Lof1JFj9vDdooGDJ3tr7-39" value="(1, 1)" style="text;html=1;align=center;verticalAlign=middle;whiteSpace=wrap;rounded=0;" parent="1" vertex="1">
          <mxGeometry x="438.5" y="410" width="40" height="30" as="geometry" />
        </mxCell>
        <mxCell id="Lof1JFj9vDdooGDJ3tr7-40" value="(1, 1)" style="text;html=1;align=center;verticalAlign=middle;whiteSpace=wrap;rounded=0;" parent="1" vertex="1">
          <mxGeometry x="500.75" y="487.5" width="40" height="30" as="geometry" />
        </mxCell>
        <mxCell id="Lof1JFj9vDdooGDJ3tr7-41" value="(0, N)" style="text;html=1;align=center;verticalAlign=middle;whiteSpace=wrap;rounded=0;" parent="1" vertex="1">
          <mxGeometry x="600.5" y="482.5" width="40" height="30" as="geometry" />
        </mxCell>
        <mxCell id="3Wrq5dXTpu2pAxTUNvoG-1" value="" style="endArrow=none;html=1;rounded=0;entryX=0.5;entryY=0;entryDx=0;entryDy=0;exitX=0.5;exitY=1;exitDx=0;exitDy=0;" parent="1" source="PryiWyV4l3Cs9IJDbPkJ-15" target="Lof1JFj9vDdooGDJ3tr7-32" edge="1">
          <mxGeometry width="50" height="50" relative="1" as="geometry">
            <mxPoint x="499" y="440" as="sourcePoint" />
            <mxPoint x="549" y="390" as="targetPoint" />
          </mxGeometry>
        </mxCell>
        <mxCell id="3Wrq5dXTpu2pAxTUNvoG-2" value="" style="endArrow=none;html=1;rounded=0;entryX=0.5;entryY=0;entryDx=0;entryDy=0;exitX=0.5;exitY=1;exitDx=0;exitDy=0;" parent="1" source="Lof1JFj9vDdooGDJ3tr7-32" target="I4Aqu3GICazZYpduQ6ZL-6" edge="1">
          <mxGeometry width="50" height="50" relative="1" as="geometry">
            <mxPoint x="439" y="340" as="sourcePoint" />
            <mxPoint x="428.5" y="460" as="targetPoint" />
          </mxGeometry>
        </mxCell>
        <mxCell id="DlvUAyC-Ip65B8nkFbfL-1" value="BIBLIOTECARIO" style="rounded=0;whiteSpace=wrap;html=1;" parent="1" vertex="1">
          <mxGeometry x="157.25" y="482.5" width="100" height="40" as="geometry" />
        </mxCell>
        <mxCell id="DlvUAyC-Ip65B8nkFbfL-2" value="id" style="text;html=1;align=center;verticalAlign=middle;whiteSpace=wrap;rounded=0;" parent="1" vertex="1">
          <mxGeometry x="244.25" y="430" width="20" height="30" as="geometry" />
        </mxCell>
        <mxCell id="DlvUAyC-Ip65B8nkFbfL-3" value="" style="endArrow=none;html=1;rounded=0;align=center;verticalAlign=top;endFill=0;labelBackgroundColor=none;endSize=6;startArrow=oval;startFill=1;entryX=0.75;entryY=0;entryDx=0;entryDy=0;exitX=0.5;exitY=1;exitDx=0;exitDy=0;" parent="1" source="DlvUAyC-Ip65B8nkFbfL-2" target="DlvUAyC-Ip65B8nkFbfL-1" edge="1">
          <mxGeometry relative="1" as="geometry">
            <mxPoint x="387" y="377.5" as="sourcePoint" />
            <mxPoint x="547" y="377.5" as="targetPoint" />
          </mxGeometry>
        </mxCell>
        <mxCell id="DlvUAyC-Ip65B8nkFbfL-4" value="" style="html=1;verticalAlign=bottom;labelBackgroundColor=none;endArrow=oval;endFill=0;endSize=8;rounded=0;exitX=0.5;exitY=0;exitDx=0;exitDy=0;" parent="1" source="DlvUAyC-Ip65B8nkFbfL-1" target="DlvUAyC-Ip65B8nkFbfL-5" edge="1">
          <mxGeometry width="160" relative="1" as="geometry">
            <mxPoint x="387" y="377.5" as="sourcePoint" />
            <mxPoint x="287" y="477.5" as="targetPoint" />
          </mxGeometry>
        </mxCell>
        <mxCell id="DlvUAyC-Ip65B8nkFbfL-5" value="email" style="text;html=1;align=center;verticalAlign=middle;whiteSpace=wrap;rounded=0;" parent="1" vertex="1">
          <mxGeometry x="187.25" y="420" width="40" height="30" as="geometry" />
        </mxCell>
        <mxCell id="DlvUAyC-Ip65B8nkFbfL-6" value="" style="html=1;verticalAlign=bottom;labelBackgroundColor=none;endArrow=oval;endFill=0;endSize=8;rounded=0;exitX=0.25;exitY=0;exitDx=0;exitDy=0;" parent="1" source="DlvUAyC-Ip65B8nkFbfL-1" target="DlvUAyC-Ip65B8nkFbfL-7" edge="1">
          <mxGeometry width="160" relative="1" as="geometry">
            <mxPoint x="156.25" y="476.25" as="sourcePoint" />
            <mxPoint x="236.25" y="466.25" as="targetPoint" />
          </mxGeometry>
        </mxCell>
        <mxCell id="DlvUAyC-Ip65B8nkFbfL-7" value="hash" style="text;html=1;align=center;verticalAlign=middle;whiteSpace=wrap;rounded=0;" parent="1" vertex="1">
          <mxGeometry x="126.25" y="430" width="59.25" height="30" as="geometry" />
        </mxCell>
        <mxCell id="Xngi30YbKkepxgdY4Vqo-2" value="" style="html=1;verticalAlign=bottom;labelBackgroundColor=none;endArrow=oval;endFill=0;endSize=8;rounded=0;exitX=0.25;exitY=0;exitDx=0;exitDy=0;entryX=0.75;entryY=1;entryDx=0;entryDy=0;" parent="1" source="RV2QbcGf4LLr80OaygcD-1" target="RV2QbcGf4LLr80OaygcD-13" edge="1">
          <mxGeometry width="160" relative="1" as="geometry">
            <mxPoint x="439" y="110" as="sourcePoint" />
            <mxPoint x="439" y="76" as="targetPoint" />
            <Array as="points" />
          </mxGeometry>
        </mxCell>
        <mxCell id="I4Aqu3GICazZYpduQ6ZL-5" value="" style="endArrow=none;html=1;rounded=0;align=center;verticalAlign=top;endFill=0;labelBackgroundColor=none;endSize=6;startArrow=oval;startFill=1;" parent="1" edge="1">
          <mxGeometry relative="1" as="geometry">
            <mxPoint x="399" y="450" as="sourcePoint" />
            <mxPoint x="479" y="490" as="targetPoint" />
            <Array as="points">
              <mxPoint x="479" y="450" />
            </Array>
          </mxGeometry>
        </mxCell>
        <mxCell id="I4Aqu3GICazZYpduQ6ZL-6" value="PRESTITO" style="rounded=0;whiteSpace=wrap;html=1;" parent="1" vertex="1">
          <mxGeometry x="388.12" y="460" width="80" height="40" as="geometry" />
        </mxCell>
        <mxCell id="I4Aqu3GICazZYpduQ6ZL-7" value="data prestito" style="text;html=1;align=center;verticalAlign=middle;whiteSpace=wrap;rounded=0;" parent="1" vertex="1">
          <mxGeometry x="478.5" y="407.5" width="77" height="25" as="geometry" />
        </mxCell>
        <mxCell id="I4Aqu3GICazZYpduQ6ZL-8" value="" style="html=1;verticalAlign=bottom;labelBackgroundColor=none;endArrow=oval;endFill=0;endSize=8;rounded=0;exitX=1;exitY=0;exitDx=0;exitDy=0;entryX=0.25;entryY=1;entryDx=0;entryDy=0;" parent="1" source="I4Aqu3GICazZYpduQ6ZL-6" target="I4Aqu3GICazZYpduQ6ZL-7" edge="1">
          <mxGeometry width="160" relative="1" as="geometry">
            <mxPoint x="453" y="440" as="sourcePoint" />
            <mxPoint x="473" y="420" as="targetPoint" />
          </mxGeometry>
        </mxCell>
        <mxCell id="I4Aqu3GICazZYpduQ6ZL-11" value="" style="html=1;verticalAlign=bottom;labelBackgroundColor=none;endArrow=oval;endFill=0;endSize=8;rounded=0;entryX=0.5;entryY=0;entryDx=0;entryDy=0;exitX=0.5;exitY=1;exitDx=0;exitDy=0;" parent="1" source="I4Aqu3GICazZYpduQ6ZL-6" target="I4Aqu3GICazZYpduQ6ZL-12" edge="1">
          <mxGeometry width="160" relative="1" as="geometry">
            <mxPoint x="383.49" y="450" as="sourcePoint" />
            <mxPoint x="451.24" y="430" as="targetPoint" />
          </mxGeometry>
        </mxCell>
        <mxCell id="I4Aqu3GICazZYpduQ6ZL-12" value="scadenza prestito" style="text;html=1;align=center;verticalAlign=middle;whiteSpace=wrap;rounded=0;fontStyle=0" parent="1" vertex="1">
          <mxGeometry x="379.25" y="542.5" width="59.5" height="40" as="geometry" />
        </mxCell>
        <mxCell id="I4Aqu3GICazZYpduQ6ZL-13" value="data restituzione" style="text;html=1;align=center;verticalAlign=middle;whiteSpace=wrap;rounded=0;" parent="1" vertex="1">
          <mxGeometry x="431.75" y="542.5" width="80" height="42.5" as="geometry" />
        </mxCell>
        <mxCell id="I4Aqu3GICazZYpduQ6ZL-14" value="" style="html=1;verticalAlign=bottom;labelBackgroundColor=none;endArrow=oval;endFill=0;endSize=8;rounded=0;entryX=0.5;entryY=0;entryDx=0;entryDy=0;exitX=0.75;exitY=1;exitDx=0;exitDy=0;" parent="1" source="I4Aqu3GICazZYpduQ6ZL-6" target="I4Aqu3GICazZYpduQ6ZL-13" edge="1">
          <mxGeometry width="160" relative="1" as="geometry">
            <mxPoint x="488.62" y="442.5" as="sourcePoint" />
            <mxPoint x="516.37" y="307.5" as="targetPoint" />
          </mxGeometry>
        </mxCell>
        <mxCell id="I4Aqu3GICazZYpduQ6ZL-15" value="isCorrente" style="text;html=1;align=center;verticalAlign=middle;whiteSpace=wrap;rounded=0;" parent="1" vertex="1">
          <mxGeometry x="340" y="517.5" width="63.38" height="30" as="geometry" />
        </mxCell>
        <mxCell id="I4Aqu3GICazZYpduQ6ZL-16" value="" style="html=1;verticalAlign=bottom;labelBackgroundColor=none;endArrow=oval;endFill=0;endSize=8;rounded=0;entryX=0.5;entryY=0;entryDx=0;entryDy=0;exitX=0.25;exitY=1;exitDx=0;exitDy=0;" parent="1" source="I4Aqu3GICazZYpduQ6ZL-6" target="I4Aqu3GICazZYpduQ6ZL-15" edge="1">
          <mxGeometry width="160" relative="1" as="geometry">
            <mxPoint x="304.12" y="457.5" as="sourcePoint" />
            <mxPoint x="372.37" y="265" as="targetPoint" />
          </mxGeometry>
        </mxCell>
        <mxCell id="I4Aqu3GICazZYpduQ6ZL-21" value="&lt;h1 style=&quot;margin-top: 0px; font-size: 18px;&quot;&gt;&lt;font style=&quot;font-size: 18px;&quot;&gt;Vincoli dell&#39;entità Prestito&lt;/font&gt;&lt;/h1&gt;&lt;div style=&quot;&quot;&gt;&lt;font style=&quot;font-size: 14px;&quot;&gt;Un prestito può essere corrente o passato dipendentemente dallo stato di restituzione del libro. Pertanto:&lt;/font&gt;&lt;/div&gt;&lt;div style=&quot;&quot;&gt;&lt;ul style=&quot;&quot;&gt;&lt;li style=&quot;font-size: 14px;&quot;&gt;&lt;span style=&quot;background-color: initial;&quot;&gt;il campo &lt;b&gt;fine&lt;/b&gt;&lt;/span&gt;&lt;span style=&quot;background-color: initial;&quot;&gt;&amp;nbsp;è nullo nel caso il prestito sia corrente, altrimenti deve essere necessariamente popolato.&lt;/span&gt;&lt;br&gt;&lt;/li&gt;&lt;li&gt;&lt;b&gt;scadenza&lt;/b&gt;&amp;nbsp;deve essere maggiore di &lt;b&gt;inizio&lt;/b&gt;&lt;/li&gt;&lt;li&gt;&lt;b&gt;fine&lt;/b&gt; deve essere maggiore o uguale &lt;b&gt;inizio&lt;/b&gt;&lt;/li&gt;&lt;li&gt;Una data copia può partecipare al più una volta alla relazione &lt;b style=&quot;background-color: initial;&quot;&gt;Copie richiesta&lt;/b&gt;&lt;span style=&quot;background-color: initial;&quot;&gt;&amp;nbsp;se il prestito è corrente, altrimenti non ci sono vincoli (i.e. non si può prestare una copia che al momento è già in prestito, vedi il requisito &lt;/span&gt;&lt;b style=&quot;background-color: initial;&quot;&gt;Disponibilità dei volumi e delle copie&lt;/b&gt;&lt;span style=&quot;background-color: initial;&quot;&gt;).&lt;/span&gt;&lt;/li&gt;&lt;li style=&quot;font-size: 14px;&quot;&gt;Un dato lettore può partecipare al più 3 o 5 (in base al proprio campo &lt;b style=&quot;font-size: 14px;&quot;&gt;categoria&lt;/b&gt;)&amp;nbsp;volte alla relazione &lt;b style=&quot;font-size: 14px;&quot;&gt;Richiedente &lt;/b&gt;se il prestito è corrente, altrimenti non ci sono vincoli (i.e. un lettore non può prendere in prestito contemporaneamente più copie di quelle che gli sono consentite in base alla categoria, vedi il requisito&amp;nbsp;&lt;b style=&quot;font-size: 14px;&quot;&gt;Numero massimo di prestiti&lt;/b&gt;).&lt;/li&gt;&lt;/ul&gt;&lt;/div&gt;" style="text;html=1;whiteSpace=wrap;overflow=hidden;rounded=0;fontSize=14;" parent="1" vertex="1">
          <mxGeometry x="40" y="600" width="360" height="440" as="geometry" />
        </mxCell>
        <mxCell id="Fnh0RuoInuSkaKtj1biX-1" value="(0, 1)" style="text;html=1;align=center;verticalAlign=middle;whiteSpace=wrap;rounded=0;labelBackgroundColor=default;" parent="1" vertex="1">
          <mxGeometry x="442.25" y="512.5" width="40" height="20" as="geometry" />
        </mxCell>
        <mxCell id="x5K2m_7Xud123f9U26JR-1" value="&lt;h1 style=&quot;margin-top: 0px;&quot;&gt;Schema Logico&lt;/h1&gt;&lt;div&gt;autore(&lt;b&gt;id&lt;/b&gt;, nome, cognome, data di nascita, data di morte*,&amp;nbsp; biografia, isValido)&lt;/div&gt;&lt;div&gt;libro(&lt;b&gt;ISBN&lt;/b&gt;, titolo, trama, casa editrice, isValido)&lt;/div&gt;&lt;div&gt;sede(&lt;b&gt;id&lt;/b&gt;, indirizzo, città, isOperativa)&lt;/div&gt;&lt;div&gt;copia(&lt;b&gt;id&lt;/b&gt;, &lt;i&gt;libro, s&lt;/i&gt;&lt;i&gt;ede&lt;/i&gt;, isValida)&lt;/div&gt;&lt;div&gt;bibliotecario(&lt;b&gt;id&lt;/b&gt;, email, hash, salt)&lt;/div&gt;&lt;div&gt;lettore(&lt;b&gt;codice fiscale&lt;/b&gt;, nome, cognome, email, hash, salt, categoria, ritardi, isRegistrato)&lt;br&gt;&lt;/div&gt;&lt;div&gt;prestito(&lt;b&gt;data prestito&lt;/b&gt;, &lt;b&gt;&lt;i&gt;copia&lt;/i&gt;&lt;/b&gt;, &lt;b&gt;&lt;i&gt;richiedente&lt;/i&gt;&lt;/b&gt;, isCorrente, scadenza, data restituzione*)&lt;/div&gt;&lt;div&gt;scritto(&lt;i style=&quot;font-weight: bold;&quot;&gt;autore&lt;/i&gt;, &lt;i style=&quot;font-weight: bold;&quot;&gt;libro&lt;/i&gt;)&lt;/div&gt;" style="text;html=1;whiteSpace=wrap;overflow=hidden;rounded=0;" parent="1" vertex="1">
          <mxGeometry x="519" y="70" width="471" height="170" as="geometry" />
        </mxCell>
        <mxCell id="zQvQMWDWSeDvHyy_sZQJ-2" value="&lt;h1 style=&quot;margin-top: 0px;&quot;&gt;Chiavi Esterne&lt;/h1&gt;&lt;p&gt;copia.libro -&amp;gt; libro.ISBN&lt;br&gt;copia.sede -&amp;gt; sede.id&lt;br&gt;prestito.copia -&amp;gt; copia.id&lt;br&gt;prestito.richiedente -&amp;gt; lettore.codice_fiscale&lt;br&gt;scritto.autore -&amp;gt; autore.id&lt;br&gt;scritto.libro -&amp;gt; libro.ISBN&lt;br&gt;&lt;/p&gt;" style="text;html=1;whiteSpace=wrap;overflow=hidden;rounded=0;verticalAlign=top;" parent="1" vertex="1">
          <mxGeometry x="519" y="240" width="239.75" height="140" as="geometry" />
        </mxCell>
        <mxCell id="zQvQMWDWSeDvHyy_sZQJ-3" value="&lt;div&gt;Nella traduzione:&lt;/div&gt;&lt;div&gt;- gli identificatori primari sono evidenziati in &lt;b&gt;grassetto&lt;/b&gt;&lt;/div&gt;&lt;div&gt;- gli identificatori esterni sono evidenziati in &lt;i&gt;corsivo&lt;/i&gt;&lt;/div&gt;&lt;div style=&quot;&quot;&gt;- gli attributi opzionali sono etichettati con asterisco*&lt;/div&gt;" style="text;html=1;align=left;verticalAlign=middle;whiteSpace=wrap;rounded=0;" parent="1" vertex="1">
          <mxGeometry x="519" width="310" height="70" as="geometry" />
        </mxCell>
        <mxCell id="sPL59xX9ERxLS3kcxOZg-1" value="&lt;h2 style=&quot;margin-top: 0px;&quot;&gt;Altri Vincoli&lt;/h2&gt;&lt;p&gt;&lt;/p&gt;&lt;ul style=&quot;font-size: 14px;&quot;&gt;&lt;li&gt;&lt;span style=&quot;background-color: initial;&quot;&gt;il campo &lt;/span&gt;&lt;b style=&quot;background-color: initial;&quot;&gt;categoria&lt;/b&gt;&lt;span style=&quot;background-color: initial;&quot;&gt;&amp;nbsp;è un dominio che contiene soltanto i valori (base, premium)&lt;/span&gt;&lt;br&gt;&lt;/li&gt;&lt;li&gt;il campo &lt;b&gt;data di morte&lt;/b&gt;&amp;nbsp;di un autore deve essere necessariamente maggiore del campo &lt;b&gt;data di nascita&lt;/b&gt;&amp;nbsp;dello stesso autore&lt;/li&gt;&lt;/ul&gt;&lt;p&gt;&lt;/p&gt;" style="text;html=1;whiteSpace=wrap;overflow=hidden;rounded=0;" parent="1" vertex="1">
          <mxGeometry x="400" y="600" width="479.38" height="120" as="geometry" />
        </mxCell>
        <mxCell id="ae9RZiOn-9I4DMZEepFw-2" value="isOperativa" style="text;html=1;align=left;verticalAlign=middle;whiteSpace=wrap;rounded=0;spacingLeft=5;" parent="1" vertex="1">
          <mxGeometry x="290" y="107.5" width="82.25" height="25" as="geometry" />
        </mxCell>
        <mxCell id="ae9RZiOn-9I4DMZEepFw-3" value="" style="html=1;verticalAlign=bottom;labelBackgroundColor=none;endArrow=oval;endFill=0;endSize=8;rounded=0;exitX=0;exitY=0.5;exitDx=0;exitDy=0;entryX=1;entryY=0.5;entryDx=0;entryDy=0;" parent="1" source="RV2QbcGf4LLr80OaygcD-1" target="ae9RZiOn-9I4DMZEepFw-2" edge="1">
          <mxGeometry width="160" relative="1" as="geometry">
            <mxPoint x="377.5" y="162.5" as="sourcePoint" />
            <mxPoint x="354.25" y="88.75" as="targetPoint" />
          </mxGeometry>
        </mxCell>
        <mxCell id="vydq268kgsj4jX2xEECf-1" value="n° volumi in ritardo" style="text;html=1;align=center;verticalAlign=middle;whiteSpace=wrap;rounded=0;fontStyle=0" parent="1" vertex="1">
          <mxGeometry x="619" y="532.5" width="60" height="35" as="geometry" />
        </mxCell>
        <mxCell id="vydq268kgsj4jX2xEECf-2" value="" style="html=1;verticalAlign=bottom;labelBackgroundColor=none;endArrow=oval;endFill=0;endSize=8;rounded=0;exitX=0.25;exitY=1;exitDx=0;exitDy=0;entryX=0.75;entryY=0;entryDx=0;entryDy=0;" parent="1" source="Lof1JFj9vDdooGDJ3tr7-15" target="vydq268kgsj4jX2xEECf-1" edge="1">
          <mxGeometry width="160" relative="1" as="geometry">
            <mxPoint x="688.75" y="500" as="sourcePoint" />
            <mxPoint x="753.75" y="532.5" as="targetPoint" />
          </mxGeometry>
        </mxCell>
        <mxCell id="S1u61cnxbWWdEXe--fX1-1" value="id" style="text;html=1;align=center;verticalAlign=middle;whiteSpace=wrap;rounded=0;" parent="1" vertex="1">
          <mxGeometry x="348.13" y="230" width="30" height="30" as="geometry" />
        </mxCell>
        <mxCell id="S1u61cnxbWWdEXe--fX1-2" value="" style="endArrow=none;html=1;rounded=0;align=center;verticalAlign=top;endFill=0;labelBackgroundColor=none;endSize=6;startArrow=oval;startFill=1;entryX=0.25;entryY=0;entryDx=0;entryDy=0;exitX=1;exitY=1;exitDx=0;exitDy=0;" parent="1" source="S1u61cnxbWWdEXe--fX1-1" target="PryiWyV4l3Cs9IJDbPkJ-15" edge="1">
          <mxGeometry relative="1" as="geometry">
            <mxPoint x="543.16" y="140" as="sourcePoint" />
            <mxPoint x="330" y="265" as="targetPoint" />
          </mxGeometry>
        </mxCell>
        <mxCell id="QwcDMdD963IVuTxEk9rA-1" value="" style="html=1;verticalAlign=bottom;labelBackgroundColor=none;endArrow=oval;endFill=0;endSize=8;rounded=0;exitX=0;exitY=0.25;exitDx=0;exitDy=0;entryX=0.75;entryY=1;entryDx=0;entryDy=0;" parent="1" source="PryiWyV4l3Cs9IJDbPkJ-15" target="QwcDMdD963IVuTxEk9rA-2" edge="1">
          <mxGeometry width="160" relative="1" as="geometry">
            <mxPoint x="335.62" y="298.75" as="sourcePoint" />
            <mxPoint x="365.62" y="274.75" as="targetPoint" />
            <Array as="points" />
          </mxGeometry>
        </mxCell>
        <mxCell id="QwcDMdD963IVuTxEk9rA-2" value="isValida" style="text;html=1;align=center;verticalAlign=middle;whiteSpace=wrap;rounded=0;" parent="1" vertex="1">
          <mxGeometry x="309.25" y="250" width="50" height="30" as="geometry" />
        </mxCell>
        <mxCell id="QwcDMdD963IVuTxEk9rA-4" value="salt" style="text;html=1;align=center;verticalAlign=middle;whiteSpace=wrap;rounded=0;" parent="1" vertex="1">
          <mxGeometry x="70" y="487.5" width="59.25" height="30" as="geometry" />
        </mxCell>
        <mxCell id="QwcDMdD963IVuTxEk9rA-5" value="" style="html=1;verticalAlign=bottom;labelBackgroundColor=none;endArrow=oval;endFill=0;endSize=8;rounded=0;exitX=0;exitY=0.5;exitDx=0;exitDy=0;" parent="1" source="DlvUAyC-Ip65B8nkFbfL-1" target="QwcDMdD963IVuTxEk9rA-4" edge="1">
          <mxGeometry width="160" relative="1" as="geometry">
            <mxPoint x="120.25" y="518" as="sourcePoint" />
            <mxPoint x="174.5" y="501.25" as="targetPoint" />
          </mxGeometry>
        </mxCell>
        <mxCell id="QwcDMdD963IVuTxEk9rA-6" value="" style="html=1;verticalAlign=bottom;labelBackgroundColor=none;endArrow=oval;endFill=0;endSize=8;rounded=0;entryX=0.25;entryY=1;entryDx=0;entryDy=0;exitX=0.75;exitY=0;exitDx=0;exitDy=0;" parent="1" source="Lof1JFj9vDdooGDJ3tr7-15" target="QwcDMdD963IVuTxEk9rA-7" edge="1">
          <mxGeometry width="160" relative="1" as="geometry">
            <mxPoint x="734.5" y="440" as="sourcePoint" />
            <mxPoint x="689.5" y="432.5" as="targetPoint" />
          </mxGeometry>
        </mxCell>
        <mxCell id="QwcDMdD963IVuTxEk9rA-7" value="salt" style="text;html=1;align=center;verticalAlign=middle;whiteSpace=wrap;rounded=0;" parent="1" vertex="1">
          <mxGeometry x="737.5" y="407.5" width="70" height="25" as="geometry" />
        </mxCell>
        <mxCell id="LSPVp8hRAycddU3TYGVO-1" value="" style="html=1;verticalAlign=bottom;labelBackgroundColor=none;endArrow=oval;endFill=0;endSize=8;rounded=0;exitX=0;exitY=0.25;exitDx=0;exitDy=0;entryX=1;entryY=0.75;entryDx=0;entryDy=0;" edge="1" target="LSPVp8hRAycddU3TYGVO-2" parent="1" source="PryiWyV4l3Cs9IJDbPkJ-1">
          <mxGeometry width="160" relative="1" as="geometry">
            <mxPoint x="62.25" y="230" as="sourcePoint" />
            <mxPoint x="-50.75" y="255" as="targetPoint" />
          </mxGeometry>
        </mxCell>
        <mxCell id="LSPVp8hRAycddU3TYGVO-2" value="isValido" style="text;html=1;align=center;verticalAlign=middle;whiteSpace=wrap;rounded=0;" vertex="1" parent="1">
          <mxGeometry x="19" y="275" width="57.75" height="25" as="geometry" />
        </mxCell>
        <mxCell id="LSPVp8hRAycddU3TYGVO-3" value="" style="html=1;verticalAlign=bottom;labelBackgroundColor=none;endArrow=oval;endFill=0;endSize=8;rounded=0;entryX=0.75;entryY=0;entryDx=0;entryDy=0;exitX=0.25;exitY=1;exitDx=0;exitDy=0;" edge="1" target="LSPVp8hRAycddU3TYGVO-4" parent="1" source="EecY8BA8oYN59nGt1QVO-1">
          <mxGeometry width="160" relative="1" as="geometry">
            <mxPoint x="104" y="220" as="sourcePoint" />
            <mxPoint x="-56.5" y="165" as="targetPoint" />
          </mxGeometry>
        </mxCell>
        <mxCell id="LSPVp8hRAycddU3TYGVO-4" value="isValido" style="text;html=1;align=center;verticalAlign=middle;whiteSpace=wrap;rounded=0;" vertex="1" parent="1">
          <mxGeometry x="40" y="175" width="57.75" height="25" as="geometry" />
        </mxCell>
        <mxCell id="LSPVp8hRAycddU3TYGVO-5" value="isRegistrato" style="text;html=1;align=center;verticalAlign=middle;whiteSpace=wrap;rounded=0;" vertex="1" parent="1">
          <mxGeometry x="797.5" y="465" width="82.5" height="30" as="geometry" />
        </mxCell>
        <mxCell id="LSPVp8hRAycddU3TYGVO-6" value="" style="html=1;verticalAlign=bottom;labelBackgroundColor=none;endArrow=oval;endFill=0;endSize=8;rounded=0;exitX=1;exitY=0.5;exitDx=0;exitDy=0;entryX=0;entryY=0.5;entryDx=0;entryDy=0;" edge="1" target="LSPVp8hRAycddU3TYGVO-5" parent="1" source="Lof1JFj9vDdooGDJ3tr7-15">
          <mxGeometry width="160" relative="1" as="geometry">
            <mxPoint x="759" y="480" as="sourcePoint" />
            <mxPoint x="799" y="470" as="targetPoint" />
            <Array as="points" />
          </mxGeometry>
        </mxCell>
      </root>
    </mxGraphModel>
  </diagram>
</mxfile>
